<?xml version="1.0" encoding="UTF-8" standalone="no"?>
<!DOCTYPE svg PUBLIC "-//W3C//DTD SVG 1.1//EN"
 "http://www.w3.org/Graphics/SVG/1.1/DTD/svg11.dtd">
<!-- Generated by graphviz version 2.38.0 (20140413.2041)
 -->
<!-- Title: trees Pages: 1 -->
<svg width="329pt" height="98pt"
 viewBox="0.00 0.00 328.61 98.00" xmlns="http://www.w3.org/2000/svg" xmlns:xlink="http://www.w3.org/1999/xlink">
<g id="graph0" class="graph" transform="scale(1 1) rotate(0) translate(4 94)">
<title>trees</title>
<polygon fill="white" stroke="none" points="-4,4 -4,-94 324.611,-94 324.611,4 -4,4"/>
<!-- Text Files -->
<g id="node1" class="node"><title>Text Files</title>
<ellipse fill="none" stroke="black" cx="45.105" cy="-45" rx="45.2103" ry="18"/>
<text text-anchor="middle" x="45.105" y="-40.8" font-family="Times,serif" font-size="14.00">Text Files</text>
</g>
<!-- hosts file -->
<g id="node2" class="node"><title>hosts file</title>
<ellipse fill="none" stroke="black" cx="262.625" cy="-72" rx="41.6043" ry="18"/>
<text text-anchor="middle" x="262.625" y="-67.8" font-family="Times,serif" font-size="14.00">hosts file</text>
</g>
<!-- Text Files&#45;&gt;hosts file -->
<g id="edge1" class="edge"><title>Text Files&#45;&gt;hosts file</title>
<path fill="none" stroke="black" d="M88.4276,-50.3021C123.948,-54.7521 174.736,-61.1147 212.134,-65.7999"/>
<polygon fill="black" stroke="black" points="211.946,-69.3035 222.303,-67.0738 212.816,-62.3578 211.946,-69.3035"/>
<text text-anchor="middle" x="147.424" y="-64.8" font-family="Times,serif" font-size="14.00">resolve</text>
</g>
<!-- interfaces file -->
<g id="node3" class="node"><title>interfaces file</title>
<ellipse fill="none" stroke="black" cx="262.625" cy="-18" rx="57.9718" ry="18"/>
<text text-anchor="middle" x="262.625" y="-13.8" font-family="Times,serif" font-size="14.00">interfaces file</text>
</g>
<!-- Text Files&#45;&gt;interfaces file -->
<g id="edge2" class="edge"><title>Text Files&#45;&gt;interfaces file</title>
<path fill="none" stroke="black" d="M86.1281,-37.4783C93.4589,-36.2239 101.053,-35.0057 108.21,-34 137.015,-29.9522 168.996,-26.4588 196.272,-23.7782"/>
<polygon fill="black" stroke="black" points="196.862,-27.2375 206.479,-22.7911 196.188,-20.27 196.862,-27.2375"/>
<text text-anchor="middle" x="147.424" y="-36.8" font-family="Times,serif" font-size="14.00">IP assignment</text>
</g>
</g>
</svg>
