<?xml version="1.0" encoding="UTF-8" standalone="no"?>
<!DOCTYPE svg PUBLIC "-//W3C//DTD SVG 1.1//EN"
 "http://www.w3.org/Graphics/SVG/1.1/DTD/svg11.dtd">
<!-- Generated by graphviz version 2.38.0 (20140413.2041)
 -->
<!-- Title: trees Pages: 1 -->
<svg width="661pt" height="98pt"
 viewBox="0.00 0.00 660.95 98.00" xmlns="http://www.w3.org/2000/svg" xmlns:xlink="http://www.w3.org/1999/xlink">
<g id="graph0" class="graph" transform="scale(1 1) rotate(0) translate(4 94)">
<title>trees</title>
<polygon fill="white" stroke="none" points="-4,4 -4,-94 656.954,-94 656.954,4 -4,4"/>
<!-- Text Files -->
<g id="node1" class="node"><title>Text Files</title>
<ellipse fill="none" stroke="black" cx="45.105" cy="-46" rx="45.2103" ry="18"/>
<text text-anchor="middle" x="45.105" y="-41.8" font-family="Times,serif" font-size="14.00">Text Files</text>
</g>
<!-- hosts file -->
<g id="node2" class="node"><title>hosts file</title>
<ellipse fill="none" stroke="black" cx="281.793" cy="-72" rx="41.6043" ry="18"/>
<text text-anchor="middle" x="281.793" y="-67.8" font-family="Times,serif" font-size="14.00">hosts file</text>
</g>
<!-- Text Files&#45;&gt;hosts file -->
<g id="edge1" class="edge"><title>Text Files&#45;&gt;hosts file</title>
<path fill="none" stroke="black" d="M88.8774,-50.7386C128.939,-55.1769 188.802,-61.8088 230.996,-66.4833"/>
<polygon fill="black" stroke="black" points="230.727,-69.9748 241.052,-67.5973 231.498,-63.0173 230.727,-69.9748"/>
<text text-anchor="middle" x="157.008" y="-65.8" font-family="Times,serif" font-size="14.00">Name Resolution</text>
</g>
<!-- interfaces file -->
<g id="node3" class="node"><title>interfaces file</title>
<ellipse fill="none" stroke="black" cx="281.793" cy="-18" rx="57.9718" ry="18"/>
<text text-anchor="middle" x="281.793" y="-13.8" font-family="Times,serif" font-size="14.00">interfaces file</text>
</g>
<!-- Text Files&#45;&gt;interfaces file -->
<g id="edge2" class="edge"><title>Text Files&#45;&gt;interfaces file</title>
<path fill="none" stroke="black" d="M85.4314,-37.796C92.9701,-36.3952 100.817,-35.0543 108.21,-34 143.289,-28.9974 182.612,-25.2116 214.853,-22.5818"/>
<polygon fill="black" stroke="black" points="215.367,-26.052 225.058,-21.7684 214.811,-19.0741 215.367,-26.052"/>
<text text-anchor="middle" x="157.008" y="-36.8" font-family="Times,serif" font-size="14.00">IP assignment</text>
</g>
<!-- DNS resolver -->
<g id="node4" class="node"><title>DNS resolver</title>
<ellipse fill="none" stroke="black" cx="594.463" cy="-72" rx="58.4822" ry="18"/>
<text text-anchor="middle" x="594.463" y="-67.8" font-family="Times,serif" font-size="14.00">DNS resolver</text>
</g>
<!-- hosts file&#45;&gt;DNS resolver -->
<g id="edge3" class="edge"><title>hosts file&#45;&gt;DNS resolver</title>
<path fill="none" stroke="black" d="M323.727,-72C375.154,-72 464.123,-72 525.748,-72"/>
<polygon fill="black" stroke="black" points="525.775,-75.5001 535.775,-72 525.775,-68.5001 525.775,-75.5001"/>
<text text-anchor="middle" x="437.875" y="-74.8" font-family="Times,serif" font-size="14.00">Automatic Name Resolution</text>
</g>
<!-- DHCP -->
<g id="node5" class="node"><title>DHCP</title>
<ellipse fill="none" stroke="black" cx="594.463" cy="-18" rx="33.8943" ry="18"/>
<text text-anchor="middle" x="594.463" y="-13.8" font-family="Times,serif" font-size="14.00">DHCP</text>
</g>
<!-- interfaces file&#45;&gt;DHCP -->
<g id="edge4" class="edge"><title>interfaces file&#45;&gt;DHCP</title>
<path fill="none" stroke="black" d="M340.136,-18C400.914,-18 495.521,-18 550.285,-18"/>
<polygon fill="black" stroke="black" points="550.358,-21.5001 560.358,-18 550.358,-14.5001 550.358,-21.5001"/>
<text text-anchor="middle" x="437.875" y="-20.8" font-family="Times,serif" font-size="14.00">Automatic IP assignment</text>
</g>
</g>
</svg>
