<?xml version="1.0" encoding="UTF-8" standalone="no"?>
<!DOCTYPE svg PUBLIC "-//W3C//DTD SVG 1.1//EN"
 "http://www.w3.org/Graphics/SVG/1.1/DTD/svg11.dtd">
<!-- Generated by graphviz version 2.38.0 (20140413.2041)
 -->
<!-- Title: trees Pages: 1 -->
<svg width="632pt" height="98pt"
 viewBox="0.00 0.00 631.92 98.00" xmlns="http://www.w3.org/2000/svg" xmlns:xlink="http://www.w3.org/1999/xlink">
<g id="graph0" class="graph" transform="scale(1 1) rotate(0) translate(4 94)">
<title>trees</title>
<polygon fill="white" stroke="none" points="-4,4 -4,-94 627.916,-94 627.916,4 -4,4"/>
<!-- text files -->
<g id="node1" class="node"><title>text files</title>
<ellipse fill="none" stroke="black" cx="40.3206" cy="-46" rx="40.1419" ry="18"/>
<text text-anchor="middle" x="40.3206" y="-41.8" font-family="Times,serif" font-size="14.00">text files</text>
</g>
<!-- hosts file -->
<g id="node2" class="node"><title>hosts file</title>
<ellipse fill="none" stroke="black" cx="264.438" cy="-72" rx="41.6043" ry="18"/>
<text text-anchor="middle" x="264.438" y="-67.8" font-family="Times,serif" font-size="14.00">hosts file</text>
</g>
<!-- text files&#45;&gt;hosts file -->
<g id="edge1" class="edge"><title>text files&#45;&gt;hosts file</title>
<path fill="none" stroke="black" d="M79.5038,-50.4696C116.666,-54.8196 173.32,-61.4512 213.928,-66.2046"/>
<polygon fill="black" stroke="black" points="213.545,-69.6837 223.885,-67.3701 214.359,-62.7311 213.545,-69.6837"/>
<text text-anchor="middle" x="143.546" y="-64.8" font-family="Times,serif" font-size="14.00">name resolution</text>
</g>
<!-- interfaces file -->
<g id="node3" class="node"><title>interfaces file</title>
<ellipse fill="none" stroke="black" cx="264.438" cy="-18" rx="57.9718" ry="18"/>
<text text-anchor="middle" x="264.438" y="-13.8" font-family="Times,serif" font-size="14.00">interfaces file</text>
</g>
<!-- text files&#45;&gt;interfaces file -->
<g id="edge2" class="edge"><title>text files&#45;&gt;interfaces file</title>
<path fill="none" stroke="black" d="M76.6797,-37.9648C83.9184,-36.4984 91.5052,-35.09 98.6411,-34 131.064,-29.0475 167.322,-25.3312 197.556,-22.7331"/>
<polygon fill="black" stroke="black" points="197.891,-26.2173 207.564,-21.8946 197.307,-19.2418 197.891,-26.2173"/>
<text text-anchor="middle" x="143.546" y="-36.8" font-family="Times,serif" font-size="14.00">IP assignment</text>
</g>
<!-- DNS resolver -->
<g id="node4" class="node"><title>DNS resolver</title>
<ellipse fill="none" stroke="black" cx="565.425" cy="-72" rx="58.4822" ry="18"/>
<text text-anchor="middle" x="565.425" y="-67.8" font-family="Times,serif" font-size="14.00">DNS resolver</text>
</g>
<!-- hosts file&#45;&gt;DNS resolver -->
<g id="edge3" class="edge"><title>hosts file&#45;&gt;DNS resolver</title>
<path fill="none" stroke="black" d="M306.384,-72C355.342,-72 438,-72 496.559,-72"/>
<polygon fill="black" stroke="black" points="496.834,-75.5001 506.833,-72 496.833,-68.5001 496.834,-75.5001"/>
<text text-anchor="middle" x="414.679" y="-74.8" font-family="Times,serif" font-size="14.00">automatic name resolution</text>
</g>
<!-- DHCP -->
<g id="node5" class="node"><title>DHCP</title>
<ellipse fill="none" stroke="black" cx="565.425" cy="-18" rx="33.8943" ry="18"/>
<text text-anchor="middle" x="565.425" y="-13.8" font-family="Times,serif" font-size="14.00">DHCP</text>
</g>
<!-- interfaces file&#45;&gt;DHCP -->
<g id="edge4" class="edge"><title>interfaces file&#45;&gt;DHCP</title>
<path fill="none" stroke="black" d="M322.732,-18C380.633,-18 468.809,-18 521.121,-18"/>
<polygon fill="black" stroke="black" points="521.401,-21.5001 531.401,-18 521.401,-14.5001 521.401,-21.5001"/>
<text text-anchor="middle" x="414.679" y="-20.8" font-family="Times,serif" font-size="14.00">automatic IP assignment</text>
</g>
</g>
</svg>
