<?xml version="1.0" encoding="UTF-8" standalone="no"?>
<!DOCTYPE svg PUBLIC "-//W3C//DTD SVG 1.1//EN"
 "http://www.w3.org/Graphics/SVG/1.1/DTD/svg11.dtd">
<!-- Generated by graphviz version 2.38.0 (20140413.2041)
 -->
<!-- Title: trees Pages: 1 -->
<svg width="921pt" height="692pt"
 viewBox="0.00 0.00 921.29 692.00" xmlns="http://www.w3.org/2000/svg" xmlns:xlink="http://www.w3.org/1999/xlink">
<g id="graph0" class="graph" transform="scale(1 1) rotate(0) translate(4 688)">
<title>trees</title>
<polygon fill="white" stroke="none" points="-4,4 -4,-688 917.286,-688 917.286,4 -4,4"/>
<!-- Supply Depot -->
<g id="node1" class="node"><title>Supply Depot</title>
<ellipse fill="none" stroke="black" cx="72.7365" cy="-261" rx="58.984" ry="18"/>
<text text-anchor="middle" x="72.7365" y="-256.8" font-family="Times,serif" font-size="14.00">Supply Depot</text>
</g>
<!-- Barracks -->
<g id="node2" class="node"><title>Barracks</title>
<ellipse fill="none" stroke="black" cx="282.921" cy="-261" rx="41.5679" ry="18"/>
<text text-anchor="middle" x="282.921" y="-256.8" font-family="Times,serif" font-size="14.00">Barracks</text>
</g>
<!-- Supply Depot&#45;&gt;Barracks -->
<g id="edge1" class="edge"><title>Supply Depot&#45;&gt;Barracks</title>
<path fill="none" stroke="black" d="M132.004,-261C163.101,-261 201.016,-261 230.935,-261"/>
<polygon fill="black" stroke="black" points="231.16,-264.5 241.16,-261 231.16,-257.5 231.16,-264.5"/>
<text text-anchor="middle" x="177.09" y="-263.8" font-family="Times,serif" font-size="14.00">SCV</text>
</g>
<!-- Marine -->
<g id="node3" class="node"><title>Marine</title>
<ellipse fill="none" stroke="black" cx="487.215" cy="-423" rx="35.7887" ry="18"/>
<text text-anchor="middle" x="487.215" y="-418.8" font-family="Times,serif" font-size="14.00">Marine</text>
</g>
<!-- Barracks&#45;&gt;Marine -->
<g id="edge2" class="edge"><title>Barracks&#45;&gt;Marine</title>
<path fill="none" stroke="black" d="M297.353,-278.089C320.071,-306.028 368.679,-361.794 420.368,-396 428.551,-401.415 437.993,-406.068 447.127,-409.912"/>
<polygon fill="black" stroke="black" points="445.881,-413.183 456.467,-413.622 448.465,-406.678 445.881,-413.183"/>
</g>
<!-- Marauder -->
<g id="node4" class="node"><title>Marauder</title>
<ellipse fill="none" stroke="black" cx="487.215" cy="-369" rx="44.4578" ry="18"/>
<text text-anchor="middle" x="487.215" y="-364.8" font-family="Times,serif" font-size="14.00">Marauder</text>
</g>
<!-- Barracks&#45;&gt;Marauder -->
<g id="edge3" class="edge"><title>Barracks&#45;&gt;Marauder</title>
<path fill="none" stroke="black" d="M306.522,-275.814C333.129,-292.921 378.948,-321.353 420.368,-342 428.078,-345.843 436.472,-349.595 444.606,-353.021"/>
<polygon fill="black" stroke="black" points="443.399,-356.309 453.978,-356.879 446.063,-349.836 443.399,-356.309"/>
</g>
<!-- Reaper -->
<g id="node5" class="node"><title>Reaper</title>
<ellipse fill="none" stroke="black" cx="487.215" cy="-315" rx="35.2956" ry="18"/>
<text text-anchor="middle" x="487.215" y="-310.8" font-family="Times,serif" font-size="14.00">Reaper</text>
</g>
<!-- Barracks&#45;&gt;Reaper -->
<g id="edge4" class="edge"><title>Barracks&#45;&gt;Reaper</title>
<path fill="none" stroke="black" d="M318.696,-270.283C353.908,-279.682 408.332,-294.21 445.526,-304.139"/>
<polygon fill="black" stroke="black" points="444.965,-307.611 455.53,-306.809 446.771,-300.848 444.965,-307.611"/>
</g>
<!-- Ghost -->
<g id="node6" class="node"><title>Ghost</title>
<ellipse fill="none" stroke="black" cx="487.215" cy="-261" rx="31.4723" ry="18"/>
<text text-anchor="middle" x="487.215" y="-256.8" font-family="Times,serif" font-size="14.00">Ghost</text>
</g>
<!-- Barracks&#45;&gt;Ghost -->
<g id="edge5" class="edge"><title>Barracks&#45;&gt;Ghost</title>
<path fill="none" stroke="black" d="M324.858,-261C360.013,-261 410.425,-261 445.512,-261"/>
<polygon fill="black" stroke="black" points="445.875,-264.5 455.875,-261 445.875,-257.5 445.875,-264.5"/>
</g>
<!-- Factory -->
<g id="node7" class="node"><title>Factory</title>
<ellipse fill="none" stroke="black" cx="487.215" cy="-207" rx="37.2421" ry="18"/>
<text text-anchor="middle" x="487.215" y="-202.8" font-family="Times,serif" font-size="14.00">Factory</text>
</g>
<!-- Barracks&#45;&gt;Factory -->
<g id="edge6" class="edge"><title>Barracks&#45;&gt;Factory</title>
<path fill="none" stroke="black" d="M318.696,-251.717C353.495,-242.428 407.057,-228.13 444.21,-218.213"/>
<polygon fill="black" stroke="black" points="445.466,-221.5 454.225,-215.539 443.66,-214.737 445.466,-221.5"/>
<text text-anchor="middle" x="388.751" y="-238.8" font-family="Times,serif" font-size="14.00">SCV</text>
</g>
<!-- Ghost Academy -->
<g id="node8" class="node"><title>Ghost Academy</title>
<ellipse fill="none" stroke="black" cx="487.215" cy="-153" rx="66.6936" ry="18"/>
<text text-anchor="middle" x="487.215" y="-148.8" font-family="Times,serif" font-size="14.00">Ghost Academy</text>
</g>
<!-- Barracks&#45;&gt;Ghost Academy -->
<g id="edge7" class="edge"><title>Barracks&#45;&gt;Ghost Academy</title>
<path fill="none" stroke="black" d="M306.522,-246.186C333.129,-229.079 378.948,-200.647 420.368,-180 426.101,-177.142 432.213,-174.335 438.314,-171.674"/>
<polygon fill="black" stroke="black" points="440.003,-174.76 447.838,-167.628 437.266,-168.317 440.003,-174.76"/>
<text text-anchor="middle" x="388.751" y="-205.8" font-family="Times,serif" font-size="14.00">SCV</text>
</g>
<!-- Bunker -->
<g id="node9" class="node"><title>Bunker</title>
<ellipse fill="none" stroke="black" cx="487.215" cy="-99" rx="36.2818" ry="18"/>
<text text-anchor="middle" x="487.215" y="-94.8" font-family="Times,serif" font-size="14.00">Bunker</text>
</g>
<!-- Barracks&#45;&gt;Bunker -->
<g id="edge8" class="edge"><title>Barracks&#45;&gt;Bunker</title>
<path fill="none" stroke="black" d="M297.353,-243.911C320.071,-215.972 368.679,-160.206 420.368,-126 428.389,-120.692 437.62,-116.116 446.584,-112.317"/>
<polygon fill="black" stroke="black" points="448.148,-115.461 456.136,-108.502 445.551,-108.961 448.148,-115.461"/>
<text text-anchor="middle" x="388.751" y="-161.8" font-family="Times,serif" font-size="14.00">SCV</text>
</g>
<!-- Starport -->
<g id="node10" class="node"><title>Starport</title>
<ellipse fill="none" stroke="black" cx="678.387" cy="-396" rx="38.6955" ry="18"/>
<text text-anchor="middle" x="678.387" y="-391.8" font-family="Times,serif" font-size="14.00">Starport</text>
</g>
<!-- Factory&#45;&gt;Starport -->
<g id="edge9" class="edge"><title>Factory&#45;&gt;Starport</title>
<path fill="none" stroke="black" d="M521.585,-213.816C533.421,-217.826 545.831,-224.132 554.062,-234 578.796,-263.655 554.503,-284.607 572.062,-319 585.688,-345.69 593.062,-351.373 617.296,-369 623.464,-373.486 630.496,-377.468 637.524,-380.902"/>
<polygon fill="black" stroke="black" points="636.473,-384.27 647.023,-385.243 639.382,-377.903 636.473,-384.27"/>
<text text-anchor="middle" x="585.679" y="-358.8" font-family="Times,serif" font-size="14.00">SCV</text>
</g>
<!-- Armory -->
<g id="node11" class="node"><title>Armory</title>
<ellipse fill="none" stroke="black" cx="678.387" cy="-342" rx="38.211" ry="18"/>
<text text-anchor="middle" x="678.387" y="-337.8" font-family="Times,serif" font-size="14.00">Armory</text>
</g>
<!-- Factory&#45;&gt;Armory -->
<g id="edge10" class="edge"><title>Factory&#45;&gt;Armory</title>
<path fill="none" stroke="black" d="M520.181,-215.679C531.712,-219.896 544.282,-225.857 554.062,-234 565.431,-243.466 563.24,-250.124 572.062,-262 590.529,-286.86 592.517,-296.424 617.296,-315 623.462,-319.622 630.544,-323.682 637.634,-327.154"/>
<polygon fill="black" stroke="black" points="636.669,-330.561 647.22,-331.524 639.573,-324.191 636.669,-330.561"/>
<text text-anchor="middle" x="585.679" y="-303.8" font-family="Times,serif" font-size="14.00">SCV</text>
</g>
<!-- Hellion -->
<g id="node12" class="node"><title>Hellion</title>
<ellipse fill="none" stroke="black" cx="678.387" cy="-288" rx="36.7663" ry="18"/>
<text text-anchor="middle" x="678.387" y="-283.8" font-family="Times,serif" font-size="14.00">Hellion</text>
</g>
<!-- Factory&#45;&gt;Hellion -->
<g id="edge11" class="edge"><title>Factory&#45;&gt;Hellion</title>
<path fill="none" stroke="black" d="M516.15,-218.285C527.884,-223.069 541.662,-228.744 554.062,-234 583.508,-246.482 616.71,-261.049 641.24,-271.905"/>
<polygon fill="black" stroke="black" points="639.961,-275.166 650.521,-276.019 642.797,-268.767 639.961,-275.166"/>
</g>
<!-- Siege Tank -->
<g id="node13" class="node"><title>Siege Tank</title>
<ellipse fill="none" stroke="black" cx="678.387" cy="-234" rx="49.2257" ry="18"/>
<text text-anchor="middle" x="678.387" y="-229.8" font-family="Times,serif" font-size="14.00">Siege Tank</text>
</g>
<!-- Factory&#45;&gt;Siege Tank -->
<g id="edge12" class="edge"><title>Factory&#45;&gt;Siege Tank</title>
<path fill="none" stroke="black" d="M522.912,-211.952C550.631,-215.909 590.009,-221.529 622.068,-226.104"/>
<polygon fill="black" stroke="black" points="621.801,-229.602 632.196,-227.55 622.79,-222.672 621.801,-229.602"/>
</g>
<!-- Window Mine -->
<g id="node14" class="node"><title>Window Mine</title>
<ellipse fill="none" stroke="black" cx="678.387" cy="-180" rx="61.1814" ry="18"/>
<text text-anchor="middle" x="678.387" y="-175.8" font-family="Times,serif" font-size="14.00">Window Mine</text>
</g>
<!-- Factory&#45;&gt;Window Mine -->
<g id="edge13" class="edge"><title>Factory&#45;&gt;Window Mine</title>
<path fill="none" stroke="black" d="M522.912,-202.048C548.02,-198.464 582.692,-193.516 612.827,-189.214"/>
<polygon fill="black" stroke="black" points="613.448,-192.661 622.853,-187.783 612.459,-185.732 613.448,-192.661"/>
</g>
<!-- Hellbat -->
<g id="node15" class="node"><title>Hellbat</title>
<ellipse fill="none" stroke="black" cx="678.387" cy="-126" rx="36.2732" ry="18"/>
<text text-anchor="middle" x="678.387" y="-121.8" font-family="Times,serif" font-size="14.00">Hellbat</text>
</g>
<!-- Factory&#45;&gt;Hellbat -->
<g id="edge14" class="edge"><title>Factory&#45;&gt;Hellbat</title>
<path fill="none" stroke="black" d="M516.15,-195.715C527.884,-190.931 541.662,-185.256 554.062,-180 583.698,-167.437 617.139,-152.763 641.714,-141.885"/>
<polygon fill="black" stroke="black" points="643.278,-145.02 651.002,-137.768 640.441,-138.621 643.278,-145.02"/>
</g>
<!-- Thor -->
<g id="node16" class="node"><title>Thor</title>
<ellipse fill="none" stroke="black" cx="678.387" cy="-72" rx="27.0958" ry="18"/>
<text text-anchor="middle" x="678.387" y="-67.8" font-family="Times,serif" font-size="14.00">Thor</text>
</g>
<!-- Factory&#45;&gt;Thor -->
<g id="edge15" class="edge"><title>Factory&#45;&gt;Thor</title>
<path fill="none" stroke="black" d="M519.459,-197.956C531.034,-193.673 543.821,-187.762 554.062,-180 554.63,-179.569 616.735,-99.4404 617.296,-99 625.244,-92.7659 634.86,-87.6197 644.048,-83.5527"/>
<polygon fill="black" stroke="black" points="645.468,-86.7529 653.379,-79.7048 642.8,-80.2815 645.468,-86.7529"/>
</g>
<!-- Cyclone -->
<g id="node17" class="node"><title>Cyclone</title>
<ellipse fill="none" stroke="black" cx="678.387" cy="-18" rx="39.6558" ry="18"/>
<text text-anchor="middle" x="678.387" y="-13.8" font-family="Times,serif" font-size="14.00">Cyclone</text>
</g>
<!-- Factory&#45;&gt;Cyclone -->
<g id="edge16" class="edge"><title>Factory&#45;&gt;Cyclone</title>
<path fill="none" stroke="black" d="M521.567,-199.757C533.258,-195.706 545.575,-189.483 554.062,-180 573.481,-158.3 560.198,-143.594 572.062,-117 587.458,-82.4874 588.787,-69.8072 617.296,-45 622.872,-40.1482 629.462,-36.0253 636.199,-32.5726"/>
<polygon fill="black" stroke="black" points="637.818,-35.6794 645.395,-28.2742 634.854,-29.3379 637.818,-35.6794"/>
</g>
<!-- Viking -->
<g id="node18" class="node"><title>Viking</title>
<ellipse fill="none" stroke="black" cx="857.999" cy="-558" rx="34.292" ry="18"/>
<text text-anchor="middle" x="857.999" y="-553.8" font-family="Times,serif" font-size="14.00">Viking</text>
</g>
<!-- Starport&#45;&gt;Viking -->
<g id="edge17" class="edge"><title>Starport&#45;&gt;Viking</title>
<path fill="none" stroke="black" d="M691.762,-413.234C712.297,-440.887 755.819,-495.644 802.712,-531 808.359,-535.258 814.781,-539.14 821.182,-542.551"/>
<polygon fill="black" stroke="black" points="819.946,-545.847 830.454,-547.201 823.084,-539.589 819.946,-545.847"/>
</g>
<!-- Medivac -->
<g id="node19" class="node"><title>Medivac</title>
<ellipse fill="none" stroke="black" cx="857.999" cy="-504" rx="41.092" ry="18"/>
<text text-anchor="middle" x="857.999" y="-499.8" font-family="Times,serif" font-size="14.00">Medivac</text>
</g>
<!-- Starport&#45;&gt;Medivac -->
<g id="edge18" class="edge"><title>Starport&#45;&gt;Medivac</title>
<path fill="none" stroke="black" d="M700.289,-410.838C724.438,-427.716 765.616,-455.695 802.712,-477 808.282,-480.2 814.283,-483.408 820.191,-486.439"/>
<polygon fill="black" stroke="black" points="818.817,-489.666 829.324,-491.031 821.961,-483.412 818.817,-489.666"/>
</g>
<!-- Raven -->
<g id="node20" class="node"><title>Raven</title>
<ellipse fill="none" stroke="black" cx="857.999" cy="-450" rx="32.8994" ry="18"/>
<text text-anchor="middle" x="857.999" y="-445.8" font-family="Times,serif" font-size="14.00">Raven</text>
</g>
<!-- Starport&#45;&gt;Raven -->
<g id="edge19" class="edge"><title>Starport&#45;&gt;Raven</title>
<path fill="none" stroke="black" d="M711.14,-405.654C741.392,-414.852 786.962,-428.707 819.101,-438.478"/>
<polygon fill="black" stroke="black" points="818.441,-441.935 829.027,-441.496 820.478,-435.238 818.441,-441.935"/>
</g>
<!-- Banshee -->
<g id="node21" class="node"><title>Banshee</title>
<ellipse fill="none" stroke="black" cx="857.999" cy="-396" rx="40.1317" ry="18"/>
<text text-anchor="middle" x="857.999" y="-391.8" font-family="Times,serif" font-size="14.00">Banshee</text>
</g>
<!-- Starport&#45;&gt;Banshee -->
<g id="edge20" class="edge"><title>Starport&#45;&gt;Banshee</title>
<path fill="none" stroke="black" d="M717.054,-396C743.445,-396 778.976,-396 807.633,-396"/>
<polygon fill="black" stroke="black" points="807.849,-399.5 817.849,-396 807.849,-392.5 807.849,-399.5"/>
</g>
<!-- Battlecruiser -->
<g id="node22" class="node"><title>Battlecruiser</title>
<ellipse fill="none" stroke="black" cx="857.999" cy="-342" rx="55.075" ry="18"/>
<text text-anchor="middle" x="857.999" y="-337.8" font-family="Times,serif" font-size="14.00">Battlecruiser</text>
</g>
<!-- Starport&#45;&gt;Battlecruiser -->
<g id="edge21" class="edge"><title>Starport&#45;&gt;Battlecruiser</title>
<path fill="none" stroke="black" d="M711.14,-386.346C737.881,-378.216 776.59,-366.447 807.412,-357.076"/>
<polygon fill="black" stroke="black" points="808.567,-360.383 817.117,-354.125 806.531,-353.686 808.567,-360.383"/>
</g>
<!-- Liberator -->
<g id="node23" class="node"><title>Liberator</title>
<ellipse fill="none" stroke="black" cx="857.999" cy="-288" rx="43.0128" ry="18"/>
<text text-anchor="middle" x="857.999" y="-283.8" font-family="Times,serif" font-size="14.00">Liberator</text>
</g>
<!-- Starport&#45;&gt;Liberator -->
<g id="edge22" class="edge"><title>Starport&#45;&gt;Liberator</title>
<path fill="none" stroke="black" d="M708.674,-384.826C718.758,-380.468 729.911,-375.058 739.477,-369 770.7,-349.227 771.883,-335.382 802.712,-315 807.718,-311.69 813.187,-308.515 818.665,-305.58"/>
<polygon fill="black" stroke="black" points="820.514,-308.565 827.81,-300.883 817.316,-302.338 820.514,-308.565"/>
</g>
<!-- Fusion Core -->
<g id="node24" class="node"><title>Fusion Core</title>
<ellipse fill="none" stroke="black" cx="857.999" cy="-234" rx="53.6803" ry="18"/>
<text text-anchor="middle" x="857.999" y="-229.8" font-family="Times,serif" font-size="14.00">Fusion Core</text>
</g>
<!-- Starport&#45;&gt;Fusion Core -->
<g id="edge23" class="edge"><title>Starport&#45;&gt;Fusion Core</title>
<path fill="none" stroke="black" d="M712.247,-387.047C722.142,-382.95 732.274,-377.135 739.477,-369 757.37,-348.792 744.109,-334.448 757.477,-311 772.319,-284.967 778.828,-279.099 802.712,-261 806.547,-258.093 810.744,-255.364 815.051,-252.841"/>
<polygon fill="black" stroke="black" points="816.875,-255.833 823.966,-247.961 813.514,-249.693 816.875,-255.833"/>
<text text-anchor="middle" x="771.094" y="-313.8" font-family="Times,serif" font-size="14.00">SCV</text>
</g>
<!-- Refinery -->
<g id="node25" class="node"><title>Refinery</title>
<ellipse fill="none" stroke="black" cx="72.7365" cy="-329" rx="40.6248" ry="18"/>
<text text-anchor="middle" x="72.7365" y="-324.8" font-family="Times,serif" font-size="14.00">Refinery</text>
</g>
<!-- Tech Lab -->
<g id="node26" class="node"><title>Tech Lab</title>
<ellipse fill="none" stroke="black" cx="72.7365" cy="-437" rx="43.2464" ry="18"/>
<text text-anchor="middle" x="72.7365" y="-432.8" font-family="Times,serif" font-size="14.00">Tech Lab</text>
</g>
<!-- Reactor -->
<g id="node27" class="node"><title>Reactor</title>
<ellipse fill="none" stroke="black" cx="72.7365" cy="-518" rx="37.7092" ry="18"/>
<text text-anchor="middle" x="72.7365" y="-513.8" font-family="Times,serif" font-size="14.00">Reactor</text>
</g>
<!-- Command Center -->
<g id="node28" class="node"><title>Command Center</title>
<ellipse fill="none" stroke="black" cx="72.7365" cy="-585" rx="72.9738" ry="18"/>
<text text-anchor="middle" x="72.7365" y="-580.8" font-family="Times,serif" font-size="14.00">Command Center</text>
</g>
<!-- SCV -->
<g id="node29" class="node"><title>SCV</title>
<ellipse fill="none" stroke="black" cx="282.921" cy="-666" rx="27.1216" ry="18"/>
<text text-anchor="middle" x="282.921" y="-661.8" font-family="Times,serif" font-size="14.00">SCV</text>
</g>
<!-- Command Center&#45;&gt;SCV -->
<g id="edge24" class="edge"><title>Command Center&#45;&gt;SCV</title>
<path fill="none" stroke="black" d="M111.155,-600.289C138.186,-611.255 175.608,-626.278 208.707,-639 221.779,-644.024 236.231,-649.393 248.817,-654.009"/>
<polygon fill="black" stroke="black" points="247.856,-657.384 258.449,-657.529 250.258,-650.809 247.856,-657.384"/>
</g>
<!-- Orbital Command -->
<g id="node30" class="node"><title>Orbital Command</title>
<ellipse fill="none" stroke="black" cx="282.921" cy="-612" rx="74.4272" ry="18"/>
<text text-anchor="middle" x="282.921" y="-607.8" font-family="Times,serif" font-size="14.00">Orbital Command</text>
</g>
<!-- Command Center&#45;&gt;Orbital Command -->
<g id="edge25" class="edge"><title>Command Center&#45;&gt;Orbital Command</title>
<path fill="none" stroke="black" d="M137.613,-593.284C159.582,-596.134 184.375,-599.349 207.133,-602.301"/>
<polygon fill="black" stroke="black" points="206.72,-605.776 217.087,-603.592 207.62,-598.834 206.72,-605.776"/>
</g>
<!-- Planetary Fortress -->
<g id="node31" class="node"><title>Planetary Fortress</title>
<ellipse fill="none" stroke="black" cx="282.921" cy="-558" rx="74.4186" ry="18"/>
<text text-anchor="middle" x="282.921" y="-553.8" font-family="Times,serif" font-size="14.00">Planetary Fortress</text>
</g>
<!-- Command Center&#45;&gt;Planetary Fortress -->
<g id="edge26" class="edge"><title>Command Center&#45;&gt;Planetary Fortress</title>
<path fill="none" stroke="black" d="M137.613,-576.716C159.582,-573.866 184.375,-570.651 207.133,-567.699"/>
<polygon fill="black" stroke="black" points="207.62,-571.166 217.087,-566.408 206.72,-564.224 207.62,-571.166"/>
</g>
<!-- Engineering Bay -->
<g id="node32" class="node"><title>Engineering Bay</title>
<ellipse fill="none" stroke="black" cx="282.921" cy="-504" rx="69.5666" ry="18"/>
<text text-anchor="middle" x="282.921" y="-499.8" font-family="Times,serif" font-size="14.00">Engineering Bay</text>
</g>
<!-- Command Center&#45;&gt;Engineering Bay -->
<g id="edge27" class="edge"><title>Command Center&#45;&gt;Engineering Bay</title>
<path fill="none" stroke="black" d="M111.155,-569.711C138.186,-558.745 175.608,-543.722 208.707,-531 216.259,-528.097 224.272,-525.08 232.119,-522.159"/>
<polygon fill="black" stroke="black" points="233.407,-525.414 241.567,-518.658 230.974,-518.85 233.407,-525.414"/>
</g>
<!-- Missile Turret -->
<g id="node33" class="node"><title>Missile Turret</title>
<ellipse fill="none" stroke="black" cx="487.215" cy="-531" rx="59.9876" ry="18"/>
<text text-anchor="middle" x="487.215" y="-526.8" font-family="Times,serif" font-size="14.00">Missile Turret</text>
</g>
<!-- Engineering Bay&#45;&gt;Missile Turret -->
<g id="edge28" class="edge"><title>Engineering Bay&#45;&gt;Missile Turret</title>
<path fill="none" stroke="black" d="M345.165,-512.174C369.49,-515.421 397.483,-519.157 422.086,-522.441"/>
<polygon fill="black" stroke="black" points="421.668,-525.916 432.043,-523.77 422.594,-518.977 421.668,-525.916"/>
</g>
<!-- Sensor Tower -->
<g id="node34" class="node"><title>Sensor Tower</title>
<ellipse fill="none" stroke="black" cx="487.215" cy="-477" rx="58.8974" ry="18"/>
<text text-anchor="middle" x="487.215" y="-472.8" font-family="Times,serif" font-size="14.00">Sensor Tower</text>
</g>
<!-- Engineering Bay&#45;&gt;Sensor Tower -->
<g id="edge29" class="edge"><title>Engineering Bay&#45;&gt;Sensor Tower</title>
<path fill="none" stroke="black" d="M345.165,-495.826C369.797,-492.538 398.189,-488.749 423.014,-485.435"/>
<polygon fill="black" stroke="black" points="423.604,-488.888 433.053,-484.095 422.678,-481.949 423.604,-488.888"/>
</g>
</g>
</svg>
