<?xml version="1.0" encoding="UTF-8" standalone="no"?>
<!DOCTYPE svg PUBLIC "-//W3C//DTD SVG 1.1//EN"
 "http://www.w3.org/Graphics/SVG/1.1/DTD/svg11.dtd">
<!-- Generated by graphviz version 2.38.0 (20140413.2041)
 -->
<!-- Title: trees Pages: 1 -->
<svg width="966pt" height="666pt"
 viewBox="0.00 0.00 966.33 666.00" xmlns="http://www.w3.org/2000/svg" xmlns:xlink="http://www.w3.org/1999/xlink">
<g id="graph0" class="graph" transform="scale(1 1) rotate(0) translate(4 662)">
<title>trees</title>
<polygon fill="white" stroke="none" points="-4,4 -4,-662 962.332,-662 962.332,4 -4,4"/>
<!-- Supply Depot -->
<g id="node1" class="node"><title>Supply Depot</title>
<ellipse fill="none" stroke="black" cx="240.465" cy="-484" rx="58.984" ry="18"/>
<text text-anchor="middle" x="240.465" y="-479.8" font-family="Times,serif" font-size="14.00">Supply Depot</text>
</g>
<!-- Barracks -->
<g id="node2" class="node"><title>Barracks</title>
<ellipse fill="none" stroke="black" cx="409.67" cy="-484" rx="41.5679" ry="18"/>
<text text-anchor="middle" x="409.67" y="-479.8" font-family="Times,serif" font-size="14.00">Barracks</text>
</g>
<!-- Supply Depot&#45;&gt;Barracks -->
<g id="edge1" class="edge"><title>Supply Depot&#45;&gt;Barracks</title>
<path fill="none" stroke="black" d="M299.476,-484C318.488,-484 339.454,-484 357.889,-484"/>
<polygon fill="black" stroke="black" points="358.128,-487.5 368.128,-484 358.128,-480.5 358.128,-487.5"/>
</g>
<!-- Marine -->
<g id="node4" class="node"><title>Marine</title>
<ellipse fill="none" stroke="black" cx="586.73" cy="-640" rx="35.7887" ry="18"/>
<text text-anchor="middle" x="586.73" y="-635.8" font-family="Times,serif" font-size="14.00">Marine</text>
</g>
<!-- Barracks&#45;&gt;Marine -->
<g id="edge3" class="edge"><title>Barracks&#45;&gt;Marine</title>
<path fill="none" stroke="black" d="M421.365,-501.337C438.9,-528.497 476.214,-581.247 519.884,-613 527.82,-618.77 537.168,-623.559 546.29,-627.419"/>
<polygon fill="black" stroke="black" points="545.057,-630.696 555.644,-631.109 547.626,-624.184 545.057,-630.696"/>
</g>
<!-- Marauder -->
<g id="node5" class="node"><title>Marauder</title>
<ellipse fill="none" stroke="black" cx="586.73" cy="-586" rx="44.4578" ry="18"/>
<text text-anchor="middle" x="586.73" y="-581.8" font-family="Times,serif" font-size="14.00">Marauder</text>
</g>
<!-- Barracks&#45;&gt;Marauder -->
<g id="edge4" class="edge"><title>Barracks&#45;&gt;Marauder</title>
<path fill="none" stroke="black" d="M430.772,-499.745C452.075,-515.957 487.103,-541.285 519.884,-559 527.384,-563.053 535.624,-566.883 543.662,-570.315"/>
<polygon fill="black" stroke="black" points="542.368,-573.567 552.946,-574.151 545.041,-567.098 542.368,-573.567"/>
</g>
<!-- Reaper -->
<g id="node6" class="node"><title>Reaper</title>
<ellipse fill="none" stroke="black" cx="586.73" cy="-532" rx="35.2956" ry="18"/>
<text text-anchor="middle" x="586.73" y="-527.8" font-family="Times,serif" font-size="14.00">Reaper</text>
</g>
<!-- Barracks&#45;&gt;Reaper -->
<g id="edge5" class="edge"><title>Barracks&#45;&gt;Reaper</title>
<path fill="none" stroke="black" d="M445.257,-493.483C474.083,-501.387 515.182,-512.656 545.481,-520.964"/>
<polygon fill="black" stroke="black" points="544.74,-524.39 555.309,-523.659 546.591,-517.639 544.74,-524.39"/>
</g>
<!-- Ghost -->
<g id="node7" class="node"><title>Ghost</title>
<ellipse fill="none" stroke="black" cx="586.73" cy="-478" rx="31.4723" ry="18"/>
<text text-anchor="middle" x="586.73" y="-473.8" font-family="Times,serif" font-size="14.00">Ghost</text>
</g>
<!-- Barracks&#45;&gt;Ghost -->
<g id="edge6" class="edge"><title>Barracks&#45;&gt;Ghost</title>
<path fill="none" stroke="black" d="M451.273,-482.608C479.485,-481.641 516.932,-480.358 545.141,-479.391"/>
<polygon fill="black" stroke="black" points="545.588,-482.878 555.462,-479.037 545.348,-475.882 545.588,-482.878"/>
</g>
<!-- Factory -->
<g id="node8" class="node"><title>Factory</title>
<ellipse fill="none" stroke="black" cx="586.73" cy="-424" rx="37.2421" ry="18"/>
<text text-anchor="middle" x="586.73" y="-419.8" font-family="Times,serif" font-size="14.00">Factory</text>
</g>
<!-- Barracks&#45;&gt;Factory -->
<g id="edge7" class="edge"><title>Barracks&#45;&gt;Factory</title>
<path fill="none" stroke="black" d="M442.779,-472.995C471.904,-463.013 514.937,-448.264 546.175,-437.557"/>
<polygon fill="black" stroke="black" points="547.545,-440.788 555.87,-434.234 545.275,-434.166 547.545,-440.788"/>
</g>
<!-- Ghost Academy -->
<g id="node9" class="node"><title>Ghost Academy</title>
<ellipse fill="none" stroke="black" cx="586.73" cy="-370" rx="66.6936" ry="18"/>
<text text-anchor="middle" x="586.73" y="-365.8" font-family="Times,serif" font-size="14.00">Ghost Academy</text>
</g>
<!-- Barracks&#45;&gt;Ghost Academy -->
<g id="edge9" class="edge"><title>Barracks&#45;&gt;Ghost Academy</title>
<path fill="none" stroke="black" d="M447.1,-475.892C459.728,-471.773 473.347,-465.729 483.884,-457 507.832,-437.161 496.295,-417.265 519.884,-397 523.767,-393.664 528.119,-390.7 532.685,-388.076"/>
<polygon fill="black" stroke="black" points="534.385,-391.137 541.664,-383.439 531.173,-384.918 534.385,-391.137"/>
</g>
<!-- Bunker -->
<g id="node10" class="node"><title>Bunker</title>
<ellipse fill="none" stroke="black" cx="586.73" cy="-316" rx="36.2818" ry="18"/>
<text text-anchor="middle" x="586.73" y="-311.8" font-family="Times,serif" font-size="14.00">Bunker</text>
</g>
<!-- Barracks&#45;&gt;Bunker -->
<g id="edge11" class="edge"><title>Barracks&#45;&gt;Bunker</title>
<path fill="none" stroke="black" d="M448.303,-477.182C461.053,-473.193 474.441,-466.902 483.884,-457 520.553,-418.549 483.909,-382.102 519.884,-343 526.334,-335.989 534.873,-330.752 543.657,-326.856"/>
<polygon fill="black" stroke="black" points="545.152,-330.029 553.197,-323.135 542.608,-323.508 545.152,-330.029"/>
</g>
<!-- SCV -->
<g id="node3" class="node"><title>SCV</title>
<ellipse fill="none" stroke="black" cx="240.465" cy="-232" rx="27.1216" ry="18"/>
<text text-anchor="middle" x="240.465" y="-227.8" font-family="Times,serif" font-size="14.00">SCV</text>
</g>
<!-- SCV&#45;&gt;Barracks -->
<g id="edge2" class="edge"><title>SCV&#45;&gt;Barracks</title>
<path fill="none" stroke="black" d="M244.006,-249.912C250.891,-291.947 273.721,-397.827 335.457,-457 342.866,-464.101 352.3,-469.364 361.913,-473.254"/>
<polygon fill="black" stroke="black" points="360.922,-476.617 371.517,-476.705 363.289,-470.03 360.922,-476.617"/>
</g>
<!-- SCV&#45;&gt;Factory -->
<g id="edge8" class="edge"><title>SCV&#45;&gt;Factory</title>
<path fill="none" stroke="black" d="M250.724,-248.707C265.437,-273.735 296.514,-320.811 335.457,-347 369.672,-370.01 481.063,-399.073 543.077,-414.057"/>
<polygon fill="black" stroke="black" points="542.412,-417.497 552.953,-416.425 544.044,-410.69 542.412,-417.497"/>
</g>
<!-- SCV&#45;&gt;Ghost Academy -->
<g id="edge10" class="edge"><title>SCV&#45;&gt;Ghost Academy</title>
<path fill="none" stroke="black" d="M255.196,-247.252C272.249,-265.24 303.071,-294.743 335.457,-311 391.842,-339.304 462.248,-354.339 514.009,-362.129"/>
<polygon fill="black" stroke="black" points="513.704,-365.621 524.103,-363.592 514.708,-358.693 513.704,-365.621"/>
</g>
<!-- SCV&#45;&gt;Bunker -->
<g id="edge12" class="edge"><title>SCV&#45;&gt;Bunker</title>
<path fill="none" stroke="black" d="M259.93,-244.998C278.213,-257.176 307.453,-274.836 335.457,-284 404.59,-306.623 489.343,-313.361 540.361,-315.303"/>
<polygon fill="black" stroke="black" points="540.298,-318.803 550.409,-315.64 540.532,-311.807 540.298,-318.803"/>
</g>
<!-- Starport -->
<g id="node11" class="node"><title>Starport</title>
<ellipse fill="none" stroke="black" cx="750.668" cy="-294" rx="38.6955" ry="18"/>
<text text-anchor="middle" x="750.668" y="-289.8" font-family="Times,serif" font-size="14.00">Starport</text>
</g>
<!-- SCV&#45;&gt;Starport -->
<g id="edge14" class="edge"><title>SCV&#45;&gt;Starport</title>
<path fill="none" stroke="black" d="M266.934,-236.747C285.807,-240.164 312.181,-244.729 335.457,-248 468.042,-266.631 625.375,-282.362 702.403,-289.651"/>
<polygon fill="black" stroke="black" points="702.444,-293.171 712.728,-290.623 703.1,-286.201 702.444,-293.171"/>
</g>
<!-- Armory -->
<g id="node12" class="node"><title>Armory</title>
<ellipse fill="none" stroke="black" cx="750.668" cy="-240" rx="38.211" ry="18"/>
<text text-anchor="middle" x="750.668" y="-235.8" font-family="Times,serif" font-size="14.00">Armory</text>
</g>
<!-- SCV&#45;&gt;Armory -->
<g id="edge16" class="edge"><title>SCV&#45;&gt;Armory</title>
<path fill="none" stroke="black" d="M268.073,-232.419C349.718,-233.704 597.471,-237.604 702.162,-239.252"/>
<polygon fill="black" stroke="black" points="702.376,-242.756 712.429,-239.414 702.486,-235.757 702.376,-242.756"/>
</g>
<!-- Fusion Core -->
<g id="node25" class="node"><title>Fusion Core</title>
<ellipse fill="none" stroke="black" cx="903.045" cy="-159" rx="53.6803" ry="18"/>
<text text-anchor="middle" x="903.045" y="-154.8" font-family="Times,serif" font-size="14.00">Fusion Core</text>
</g>
<!-- SCV&#45;&gt;Fusion Core -->
<g id="edge30" class="edge"><title>SCV&#45;&gt;Fusion Core</title>
<path fill="none" stroke="black" d="M267.768,-229.093C364.57,-218.396 702.582,-181.042 841.612,-165.678"/>
<polygon fill="black" stroke="black" points="842.114,-169.144 851.669,-164.567 841.345,-162.187 842.114,-169.144"/>
</g>
<!-- Orbital Command -->
<g id="node30" class="node"><title>Orbital Command</title>
<ellipse fill="none" stroke="black" cx="409.67" cy="-18" rx="74.4272" ry="18"/>
<text text-anchor="middle" x="409.67" y="-13.8" font-family="Times,serif" font-size="14.00">Orbital Command</text>
</g>
<!-- SCV&#45;&gt;Orbital Command -->
<g id="edge33" class="edge"><title>SCV&#45;&gt;Orbital Command</title>
<path fill="none" stroke="black" d="M248.224,-214.74C264.755,-173.269 307.887,-69.6325 335.457,-45 339.397,-41.4798 343.836,-38.4056 348.53,-35.7231"/>
<polygon fill="black" stroke="black" points="350.462,-38.6682 357.807,-31.0331 347.304,-32.421 350.462,-38.6682"/>
</g>
<!-- Planetary Fortress -->
<g id="node31" class="node"><title>Planetary Fortress</title>
<ellipse fill="none" stroke="black" cx="409.67" cy="-430" rx="74.4186" ry="18"/>
<text text-anchor="middle" x="409.67" y="-425.8" font-family="Times,serif" font-size="14.00">Planetary Fortress</text>
</g>
<!-- SCV&#45;&gt;Planetary Fortress -->
<g id="edge35" class="edge"><title>SCV&#45;&gt;Planetary Fortress</title>
<path fill="none" stroke="black" d="M250.583,-248.763C272.949,-289.79 329.17,-392.33 335.457,-398 341.052,-403.046 347.568,-407.391 354.363,-411.105"/>
<polygon fill="black" stroke="black" points="353.231,-414.452 363.741,-415.787 356.357,-408.189 353.231,-414.452"/>
</g>
<!-- Engineering Bay -->
<g id="node32" class="node"><title>Engineering Bay</title>
<ellipse fill="none" stroke="black" cx="409.67" cy="-72" rx="69.5666" ry="18"/>
<text text-anchor="middle" x="409.67" y="-67.8" font-family="Times,serif" font-size="14.00">Engineering Bay</text>
</g>
<!-- SCV&#45;&gt;Engineering Bay -->
<g id="edge37" class="edge"><title>SCV&#45;&gt;Engineering Bay</title>
<path fill="none" stroke="black" d="M251.966,-215.579C271.809,-184.932 314.682,-120.62 335.457,-104 341.779,-98.9429 349.023,-94.5284 356.44,-90.7265"/>
<polygon fill="black" stroke="black" points="358.348,-93.6948 365.872,-86.236 355.339,-87.3746 358.348,-93.6948"/>
</g>
<!-- Missile Turret -->
<g id="node33" class="node"><title>Missile Turret</title>
<ellipse fill="none" stroke="black" cx="586.73" cy="-77" rx="59.9876" ry="18"/>
<text text-anchor="middle" x="586.73" y="-72.8" font-family="Times,serif" font-size="14.00">Missile Turret</text>
</g>
<!-- SCV&#45;&gt;Missile Turret -->
<g id="edge39" class="edge"><title>SCV&#45;&gt;Missile Turret</title>
<path fill="none" stroke="black" d="M254.089,-216.374C270.715,-196.822 301.811,-163.646 335.457,-145 368.26,-126.821 464.351,-103.507 527.471,-89.4382"/>
<polygon fill="black" stroke="black" points="528.296,-92.8404 537.304,-87.2619 526.784,-86.0058 528.296,-92.8404"/>
</g>
<!-- Sensor Tower -->
<g id="node34" class="node"><title>Sensor Tower</title>
<ellipse fill="none" stroke="black" cx="586.73" cy="-142" rx="58.8974" ry="18"/>
<text text-anchor="middle" x="586.73" y="-137.8" font-family="Times,serif" font-size="14.00">Sensor Tower</text>
</g>
<!-- SCV&#45;&gt;Sensor Tower -->
<g id="edge41" class="edge"><title>SCV&#45;&gt;Sensor Tower</title>
<path fill="none" stroke="black" d="M259.978,-219.146C278.297,-207.075 307.563,-189.492 335.457,-180 395.525,-159.559 467.441,-150.088 518.737,-145.715"/>
<polygon fill="black" stroke="black" points="519.027,-149.203 528.712,-144.906 518.462,-142.226 519.027,-149.203"/>
</g>
<!-- Factory&#45;&gt;Starport -->
<g id="edge13" class="edge"><title>Factory&#45;&gt;Starport</title>
<path fill="none" stroke="black" d="M620.28,-415.978C631.879,-411.837 644.342,-405.756 653.577,-397 680.7,-371.284 662.884,-347.162 689.577,-321 694.968,-315.716 701.573,-311.362 708.408,-307.81"/>
<polygon fill="black" stroke="black" points="710.188,-310.842 717.779,-303.451 707.236,-304.495 710.188,-310.842"/>
</g>
<!-- Factory&#45;&gt;Armory -->
<g id="edge15" class="edge"><title>Factory&#45;&gt;Armory</title>
<path fill="none" stroke="black" d="M621.124,-416.794C632.82,-412.748 645.129,-406.518 653.577,-397 693.374,-352.162 650.529,-312.492 689.577,-267 694.494,-261.272 700.869,-256.703 707.624,-253.076"/>
<polygon fill="black" stroke="black" points="709.402,-256.108 716.97,-248.694 706.43,-249.77 709.402,-256.108"/>
</g>
<!-- Hellion -->
<g id="node13" class="node"><title>Hellion</title>
<ellipse fill="none" stroke="black" cx="750.668" cy="-348" rx="36.7663" ry="18"/>
<text text-anchor="middle" x="750.668" y="-343.8" font-family="Times,serif" font-size="14.00">Hellion</text>
</g>
<!-- Factory&#45;&gt;Hellion -->
<g id="edge17" class="edge"><title>Factory&#45;&gt;Hellion</title>
<path fill="none" stroke="black" d="M616.697,-413.278C628.345,-408.671 641.783,-402.974 653.577,-397 670.305,-388.527 672.992,-383.749 689.577,-375 696.984,-371.092 705.071,-367.211 712.842,-363.661"/>
<polygon fill="black" stroke="black" points="714.402,-366.797 722.097,-359.515 711.54,-360.409 714.402,-366.797"/>
</g>
<!-- Siege Tank -->
<g id="node14" class="node"><title>Siege Tank</title>
<ellipse fill="none" stroke="black" cx="750.668" cy="-618" rx="49.2257" ry="18"/>
<text text-anchor="middle" x="750.668" y="-613.8" font-family="Times,serif" font-size="14.00">Siege Tank</text>
</g>
<!-- Factory&#45;&gt;Siege Tank -->
<g id="edge18" class="edge"><title>Factory&#45;&gt;Siege Tank</title>
<path fill="none" stroke="black" d="M621.219,-431.123C632.925,-435.16 645.217,-441.405 653.577,-451 695.779,-499.441 648.183,-541.866 689.577,-591 693.169,-595.264 697.573,-598.883 702.348,-601.949"/>
<polygon fill="black" stroke="black" points="700.807,-605.096 711.249,-606.887 704.203,-598.975 700.807,-605.096"/>
</g>
<!-- Window Mine -->
<g id="node15" class="node"><title>Window Mine</title>
<ellipse fill="none" stroke="black" cx="750.668" cy="-564" rx="61.1814" ry="18"/>
<text text-anchor="middle" x="750.668" y="-559.8" font-family="Times,serif" font-size="14.00">Window Mine</text>
</g>
<!-- Factory&#45;&gt;Window Mine -->
<g id="edge19" class="edge"><title>Factory&#45;&gt;Window Mine</title>
<path fill="none" stroke="black" d="M620.499,-431.797C632.122,-435.912 644.545,-442.034 653.577,-451 682.983,-480.192 660.658,-507.324 689.577,-537 692.715,-540.22 696.306,-543.088 700.138,-545.636"/>
<polygon fill="black" stroke="black" points="698.426,-548.69 708.826,-550.715 701.959,-542.646 698.426,-548.69"/>
</g>
<!-- Hellbat -->
<g id="node16" class="node"><title>Hellbat</title>
<ellipse fill="none" stroke="black" cx="750.668" cy="-510" rx="36.2732" ry="18"/>
<text text-anchor="middle" x="750.668" y="-505.8" font-family="Times,serif" font-size="14.00">Hellbat</text>
</g>
<!-- Factory&#45;&gt;Hellbat -->
<g id="edge20" class="edge"><title>Factory&#45;&gt;Hellbat</title>
<path fill="none" stroke="black" d="M617.944,-433.931C629.516,-438.356 642.571,-444.132 653.577,-451 671.738,-462.333 671.606,-471.368 689.577,-483 696.539,-487.507 704.379,-491.627 712.04,-495.217"/>
<polygon fill="black" stroke="black" points="710.668,-498.438 721.226,-499.325 713.526,-492.048 710.668,-498.438"/>
</g>
<!-- Thor -->
<g id="node17" class="node"><title>Thor</title>
<ellipse fill="none" stroke="black" cx="750.668" cy="-456" rx="27.0958" ry="18"/>
<text text-anchor="middle" x="750.668" y="-451.8" font-family="Times,serif" font-size="14.00">Thor</text>
</g>
<!-- Factory&#45;&gt;Thor -->
<g id="edge21" class="edge"><title>Factory&#45;&gt;Thor</title>
<path fill="none" stroke="black" d="M621.284,-430.63C648.474,-436.003 686.68,-443.553 714.336,-449.018"/>
<polygon fill="black" stroke="black" points="713.886,-452.497 724.375,-451.002 715.243,-445.63 713.886,-452.497"/>
</g>
<!-- Cyclone -->
<g id="node18" class="node"><title>Cyclone</title>
<ellipse fill="none" stroke="black" cx="750.668" cy="-402" rx="39.6558" ry="18"/>
<text text-anchor="middle" x="750.668" y="-397.8" font-family="Times,serif" font-size="14.00">Cyclone</text>
</g>
<!-- Factory&#45;&gt;Cyclone -->
<g id="edge22" class="edge"><title>Factory&#45;&gt;Cyclone</title>
<path fill="none" stroke="black" d="M622.868,-419.226C646.169,-416.061 677.02,-411.87 702.457,-408.414"/>
<polygon fill="black" stroke="black" points="703.191,-411.846 712.629,-407.032 702.248,-404.91 703.191,-411.846"/>
</g>
<!-- Viking -->
<g id="node19" class="node"><title>Viking</title>
<ellipse fill="none" stroke="black" cx="903.045" cy="-429" rx="34.292" ry="18"/>
<text text-anchor="middle" x="903.045" y="-424.8" font-family="Times,serif" font-size="14.00">Viking</text>
</g>
<!-- Starport&#45;&gt;Viking -->
<g id="edge23" class="edge"><title>Starport&#45;&gt;Viking</title>
<path fill="none" stroke="black" d="M783.665,-303.34C793.623,-307.479 804.01,-313.22 811.758,-321 839.558,-348.913 820.511,-373.547 847.758,-402 852.601,-407.057 858.592,-411.309 864.807,-414.832"/>
<polygon fill="black" stroke="black" points="863.466,-418.077 873.967,-419.483 866.635,-411.835 863.466,-418.077"/>
</g>
<!-- Medivac -->
<g id="node20" class="node"><title>Medivac</title>
<ellipse fill="none" stroke="black" cx="903.045" cy="-375" rx="41.092" ry="18"/>
<text text-anchor="middle" x="903.045" y="-370.8" font-family="Times,serif" font-size="14.00">Medivac</text>
</g>
<!-- Starport&#45;&gt;Medivac -->
<g id="edge24" class="edge"><title>Starport&#45;&gt;Medivac</title>
<path fill="none" stroke="black" d="M780.744,-305.519C790.809,-309.907 802.005,-315.248 811.758,-321 828.985,-331.161 830.734,-337.503 847.758,-348 853.168,-351.335 859.045,-354.599 864.869,-357.64"/>
<polygon fill="black" stroke="black" points="863.399,-360.819 873.901,-362.212 866.56,-354.573 863.399,-360.819"/>
</g>
<!-- Raven -->
<g id="node21" class="node"><title>Raven</title>
<ellipse fill="none" stroke="black" cx="903.045" cy="-321" rx="32.8994" ry="18"/>
<text text-anchor="middle" x="903.045" y="-316.8" font-family="Times,serif" font-size="14.00">Raven</text>
</g>
<!-- Starport&#45;&gt;Raven -->
<g id="edge25" class="edge"><title>Starport&#45;&gt;Raven</title>
<path fill="none" stroke="black" d="M786.924,-300.33C809.308,-304.349 838.343,-309.562 861.653,-313.748"/>
<polygon fill="black" stroke="black" points="861.125,-317.209 871.586,-315.531 862.362,-310.319 861.125,-317.209"/>
</g>
<!-- Banshee -->
<g id="node22" class="node"><title>Banshee</title>
<ellipse fill="none" stroke="black" cx="903.045" cy="-267" rx="40.1317" ry="18"/>
<text text-anchor="middle" x="903.045" y="-262.8" font-family="Times,serif" font-size="14.00">Banshee</text>
</g>
<!-- Starport&#45;&gt;Banshee -->
<g id="edge26" class="edge"><title>Starport&#45;&gt;Banshee</title>
<path fill="none" stroke="black" d="M786.924,-287.67C807.476,-283.98 833.635,-279.283 855.822,-275.299"/>
<polygon fill="black" stroke="black" points="856.478,-278.738 865.702,-273.525 855.241,-271.848 856.478,-278.738"/>
</g>
<!-- Battlecruiser -->
<g id="node23" class="node"><title>Battlecruiser</title>
<ellipse fill="none" stroke="black" cx="903.045" cy="-213" rx="55.075" ry="18"/>
<text text-anchor="middle" x="903.045" y="-208.8" font-family="Times,serif" font-size="14.00">Battlecruiser</text>
</g>
<!-- Starport&#45;&gt;Battlecruiser -->
<g id="edge27" class="edge"><title>Starport&#45;&gt;Battlecruiser</title>
<path fill="none" stroke="black" d="M780.744,-282.481C790.809,-278.093 802.005,-272.752 811.758,-267 828.985,-256.839 830.734,-250.497 847.758,-240 852.072,-237.34 856.682,-234.726 861.326,-232.235"/>
<polygon fill="black" stroke="black" points="862.965,-235.328 870.228,-227.614 859.74,-229.115 862.965,-235.328"/>
</g>
<!-- Liberator -->
<g id="node24" class="node"><title>Liberator</title>
<ellipse fill="none" stroke="black" cx="903.045" cy="-483" rx="43.0128" ry="18"/>
<text text-anchor="middle" x="903.045" y="-478.8" font-family="Times,serif" font-size="14.00">Liberator</text>
</g>
<!-- Starport&#45;&gt;Liberator -->
<g id="edge28" class="edge"><title>Starport&#45;&gt;Liberator</title>
<path fill="none" stroke="black" d="M784.724,-302.782C794.631,-306.869 804.721,-312.722 811.758,-321 851.978,-368.311 808.474,-407.909 847.758,-456 851.126,-460.123 855.282,-463.671 859.784,-466.71"/>
<polygon fill="black" stroke="black" points="858.349,-469.925 868.75,-471.944 861.878,-463.88 858.349,-469.925"/>
</g>
<!-- Starport&#45;&gt;Fusion Core -->
<g id="edge29" class="edge"><title>Starport&#45;&gt;Fusion Core</title>
<path fill="none" stroke="black" d="M783.665,-284.66C793.623,-280.521 804.01,-274.78 811.758,-267 839.558,-239.087 820.511,-214.453 847.758,-186 850.707,-182.921 854.081,-180.14 857.673,-177.641"/>
<polygon fill="black" stroke="black" points="859.66,-180.527 866.349,-172.311 855.996,-174.563 859.66,-180.527"/>
</g>
<!-- Refinery -->
<g id="node26" class="node"><title>Refinery</title>
<ellipse fill="none" stroke="black" cx="72.7365" cy="-234" rx="40.6248" ry="18"/>
<text text-anchor="middle" x="72.7365" y="-229.8" font-family="Times,serif" font-size="14.00">Refinery</text>
</g>
<!-- Tech Lab -->
<g id="node27" class="node"><title>Tech Lab</title>
<ellipse fill="none" stroke="black" cx="72.7365" cy="-288" rx="43.2464" ry="18"/>
<text text-anchor="middle" x="72.7365" y="-283.8" font-family="Times,serif" font-size="14.00">Tech Lab</text>
</g>
<!-- Reactor -->
<g id="node28" class="node"><title>Reactor</title>
<ellipse fill="none" stroke="black" cx="72.7365" cy="-342" rx="37.7092" ry="18"/>
<text text-anchor="middle" x="72.7365" y="-337.8" font-family="Times,serif" font-size="14.00">Reactor</text>
</g>
<!-- Command Center -->
<g id="node29" class="node"><title>Command Center</title>
<ellipse fill="none" stroke="black" cx="72.7365" cy="-180" rx="72.9738" ry="18"/>
<text text-anchor="middle" x="72.7365" y="-175.8" font-family="Times,serif" font-size="14.00">Command Center</text>
</g>
<!-- Command Center&#45;&gt;SCV -->
<g id="edge31" class="edge"><title>Command Center&#45;&gt;SCV</title>
<path fill="none" stroke="black" d="M118.585,-194.072C146.052,-202.69 180.633,-213.54 205.764,-221.426"/>
<polygon fill="black" stroke="black" points="204.981,-224.848 215.57,-224.503 207.076,-218.169 204.981,-224.848"/>
</g>
<!-- Command Center&#45;&gt;Orbital Command -->
<g id="edge32" class="edge"><title>Command Center&#45;&gt;Orbital Command</title>
<path fill="none" stroke="black" d="M95.5048,-162.875C116.634,-146.788 150.031,-122.751 181.473,-106 246.44,-71.3879 266.701,-71.2925 335.457,-45 342.753,-42.2101 350.476,-39.3073 358.064,-36.4841"/>
<polygon fill="black" stroke="black" points="359.4,-39.7216 367.561,-32.9649 356.967,-33.1578 359.4,-39.7216"/>
</g>
<!-- Command Center&#45;&gt;Planetary Fortress -->
<g id="edge34" class="edge"><title>Command Center&#45;&gt;Planetary Fortress</title>
<path fill="none" stroke="black" d="M121.81,-193.451C130.18,-197.052 138.444,-201.515 145.473,-207 167.634,-224.292 162.45,-238.306 181.473,-259 241.508,-324.31 263.021,-334.788 335.457,-386 346.349,-393.701 358.627,-401.422 369.97,-408.199"/>
<polygon fill="black" stroke="black" points="368.431,-411.354 378.824,-413.413 371.983,-405.323 368.431,-411.354"/>
</g>
<!-- Command Center&#45;&gt;Engineering Bay -->
<g id="edge36" class="edge"><title>Command Center&#45;&gt;Engineering Bay</title>
<path fill="none" stroke="black" d="M117.868,-165.77C179.116,-146.02 289.755,-110.345 355.484,-89.1501"/>
<polygon fill="black" stroke="black" points="356.795,-92.4047 365.239,-86.0046 354.647,-85.7425 356.795,-92.4047"/>
</g>
<!-- Engineering Bay&#45;&gt;Missile Turret -->
<g id="edge38" class="edge"><title>Engineering Bay&#45;&gt;Missile Turret</title>
<path fill="none" stroke="black" d="M479.105,-73.9546C491.467,-74.3077 504.363,-74.676 516.74,-75.0295"/>
<polygon fill="black" stroke="black" points="516.896,-78.5353 526.992,-75.3223 517.096,-71.5382 516.896,-78.5353"/>
</g>
<!-- Engineering Bay&#45;&gt;Sensor Tower -->
<g id="edge40" class="edge"><title>Engineering Bay&#45;&gt;Sensor Tower</title>
<path fill="none" stroke="black" d="M448.225,-87.0168C475.394,-97.8806 512.223,-112.607 540.929,-124.086"/>
<polygon fill="black" stroke="black" points="539.742,-127.38 550.327,-127.843 542.341,-120.881 539.742,-127.38"/>
</g>
</g>
</svg>
