<?xml version="1.0" encoding="UTF-8" standalone="no"?>
<!DOCTYPE svg PUBLIC "-//W3C//DTD SVG 1.1//EN"
 "http://www.w3.org/Graphics/SVG/1.1/DTD/svg11.dtd">
<!-- Generated by graphviz version 2.38.0 (20140413.2041)
 -->
<!-- Title: trees Pages: 1 -->
<svg width="828pt" height="584pt"
 viewBox="0.00 0.00 828.44 584.00" xmlns="http://www.w3.org/2000/svg" xmlns:xlink="http://www.w3.org/1999/xlink">
<g id="graph0" class="graph" transform="scale(1 1) rotate(0) translate(4 580)">
<title>trees</title>
<polygon fill="white" stroke="none" points="-4,4 -4,-580 824.438,-580 824.438,4 -4,4"/>
<!-- Supply Depot -->
<g id="node1" class="node"><title>Supply Depot</title>
<ellipse fill="none" stroke="black" cx="58.992" cy="-261" rx="58.984" ry="18"/>
<text text-anchor="middle" x="58.992" y="-256.8" font-family="Times,serif" font-size="14.00">Supply Depot</text>
</g>
<!-- Barracks -->
<g id="node2" class="node"><title>Barracks</title>
<ellipse fill="none" stroke="black" cx="222.752" cy="-261" rx="41.5679" ry="18"/>
<text text-anchor="middle" x="222.752" y="-256.8" font-family="Times,serif" font-size="14.00">Barracks</text>
</g>
<!-- Supply Depot&#45;&gt;Barracks -->
<g id="edge1" class="edge"><title>Supply Depot&#45;&gt;Barracks</title>
<path fill="none" stroke="black" d="M118.391,-261C135.628,-261 154.345,-261 171.054,-261"/>
<polygon fill="black" stroke="black" points="171.168,-264.5 181.168,-261 171.168,-257.5 171.168,-264.5"/>
<text text-anchor="middle" x="149.601" y="-263.8" font-family="Times,serif" font-size="14.00">SCV</text>
</g>
<!-- Marine -->
<g id="node3" class="node"><title>Marine</title>
<ellipse fill="none" stroke="black" cx="394.367" cy="-423" rx="35.7887" ry="18"/>
<text text-anchor="middle" x="394.367" y="-418.8" font-family="Times,serif" font-size="14.00">Marine</text>
</g>
<!-- Barracks&#45;&gt;Marine -->
<g id="edge2" class="edge"><title>Barracks&#45;&gt;Marine</title>
<path fill="none" stroke="black" d="M233.242,-278.732C249.223,-307.085 284.06,-362.803 327.521,-396 335.318,-401.956 344.614,-406.815 353.729,-410.684"/>
<polygon fill="black" stroke="black" points="352.504,-413.964 363.092,-414.363 355.064,-407.448 352.504,-413.964"/>
</g>
<!-- Marauder -->
<g id="node4" class="node"><title>Marauder</title>
<ellipse fill="none" stroke="black" cx="394.367" cy="-369" rx="44.4578" ry="18"/>
<text text-anchor="middle" x="394.367" y="-364.8" font-family="Times,serif" font-size="14.00">Marauder</text>
</g>
<!-- Barracks&#45;&gt;Marauder -->
<g id="edge3" class="edge"><title>Barracks&#45;&gt;Marauder</title>
<path fill="none" stroke="black" d="M241.404,-277.252C261.228,-294.892 294.908,-323.068 327.521,-342 334.738,-346.189 342.73,-350.048 350.585,-353.458"/>
<polygon fill="black" stroke="black" points="349.462,-356.781 360.039,-357.387 352.148,-350.317 349.462,-356.781"/>
</g>
<!-- Reaper -->
<g id="node5" class="node"><title>Reaper</title>
<ellipse fill="none" stroke="black" cx="394.367" cy="-315" rx="35.2956" ry="18"/>
<text text-anchor="middle" x="394.367" y="-310.8" font-family="Times,serif" font-size="14.00">Reaper</text>
</g>
<!-- Barracks&#45;&gt;Reaper -->
<g id="edge4" class="edge"><title>Barracks&#45;&gt;Reaper</title>
<path fill="none" stroke="black" d="M256.858,-271.54C284.836,-280.447 324.952,-293.219 354.459,-302.613"/>
<polygon fill="black" stroke="black" points="353.436,-305.96 364.026,-305.659 355.559,-299.29 353.436,-305.96"/>
</g>
<!-- Ghost -->
<g id="node6" class="node"><title>Ghost</title>
<ellipse fill="none" stroke="black" cx="394.367" cy="-261" rx="31.4723" ry="18"/>
<text text-anchor="middle" x="394.367" y="-256.8" font-family="Times,serif" font-size="14.00">Ghost</text>
</g>
<!-- Barracks&#45;&gt;Ghost -->
<g id="edge5" class="edge"><title>Barracks&#45;&gt;Ghost</title>
<path fill="none" stroke="black" d="M264.379,-261C291.114,-261 325.976,-261 352.716,-261"/>
<polygon fill="black" stroke="black" points="352.897,-264.5 362.897,-261 352.897,-257.5 352.897,-264.5"/>
</g>
<!-- Factory -->
<g id="node7" class="node"><title>Factory</title>
<ellipse fill="none" stroke="black" cx="394.367" cy="-207" rx="37.2421" ry="18"/>
<text text-anchor="middle" x="394.367" y="-202.8" font-family="Times,serif" font-size="14.00">Factory</text>
</g>
<!-- Barracks&#45;&gt;Factory -->
<g id="edge6" class="edge"><title>Barracks&#45;&gt;Factory</title>
<path fill="none" stroke="black" d="M256.858,-250.46C284.489,-241.663 323.96,-229.097 353.358,-219.738"/>
<polygon fill="black" stroke="black" points="354.443,-223.066 362.91,-216.697 352.319,-216.395 354.443,-223.066"/>
<text text-anchor="middle" x="295.903" y="-244.8" font-family="Times,serif" font-size="14.00">SCV</text>
</g>
<!-- Ghost Academy -->
<g id="node8" class="node"><title>Ghost Academy</title>
<ellipse fill="none" stroke="black" cx="394.367" cy="-153" rx="66.6936" ry="18"/>
<text text-anchor="middle" x="394.367" y="-148.8" font-family="Times,serif" font-size="14.00">Ghost Academy</text>
</g>
<!-- Barracks&#45;&gt;Ghost Academy -->
<g id="edge7" class="edge"><title>Barracks&#45;&gt;Ghost Academy</title>
<path fill="none" stroke="black" d="M241.404,-244.748C261.228,-227.108 294.908,-198.932 327.521,-180 332.723,-176.98 338.328,-174.132 343.995,-171.5"/>
<polygon fill="black" stroke="black" points="345.801,-174.529 353.53,-167.282 342.969,-168.127 345.801,-174.529"/>
<text text-anchor="middle" x="295.903" y="-213.8" font-family="Times,serif" font-size="14.00">SCV</text>
</g>
<!-- Bunker -->
<g id="node9" class="node"><title>Bunker</title>
<ellipse fill="none" stroke="black" cx="394.367" cy="-99" rx="36.2818" ry="18"/>
<text text-anchor="middle" x="394.367" y="-94.8" font-family="Times,serif" font-size="14.00">Bunker</text>
</g>
<!-- Barracks&#45;&gt;Bunker -->
<g id="edge8" class="edge"><title>Barracks&#45;&gt;Bunker</title>
<path fill="none" stroke="black" d="M232.621,-243.224C247.96,-214.296 282.206,-157.141 327.521,-126 335.447,-120.553 344.642,-115.922 353.6,-112.114"/>
<polygon fill="black" stroke="black" points="355.163,-115.259 363.157,-108.306 352.571,-108.756 355.163,-115.259"/>
<text text-anchor="middle" x="295.903" y="-169.8" font-family="Times,serif" font-size="14.00">SCV</text>
</g>
<!-- Starport -->
<g id="node10" class="node"><title>Starport</title>
<ellipse fill="none" stroke="black" cx="585.539" cy="-396" rx="38.6955" ry="18"/>
<text text-anchor="middle" x="585.539" y="-391.8" font-family="Times,serif" font-size="14.00">Starport</text>
</g>
<!-- Factory&#45;&gt;Starport -->
<g id="edge9" class="edge"><title>Factory&#45;&gt;Starport</title>
<path fill="none" stroke="black" d="M428.737,-213.816C440.573,-217.826 452.984,-224.132 461.214,-234 485.948,-263.655 461.655,-284.607 479.214,-319 492.84,-345.69 500.214,-351.373 524.448,-369 530.616,-373.486 537.649,-377.468 544.676,-380.902"/>
<polygon fill="black" stroke="black" points="543.625,-384.27 554.175,-385.243 546.535,-377.903 543.625,-384.27"/>
<text text-anchor="middle" x="492.831" y="-357.8" font-family="Times,serif" font-size="14.00">SCV</text>
</g>
<!-- Armory -->
<g id="node11" class="node"><title>Armory</title>
<ellipse fill="none" stroke="black" cx="585.539" cy="-342" rx="38.211" ry="18"/>
<text text-anchor="middle" x="585.539" y="-337.8" font-family="Times,serif" font-size="14.00">Armory</text>
</g>
<!-- Factory&#45;&gt;Armory -->
<g id="edge10" class="edge"><title>Factory&#45;&gt;Armory</title>
<path fill="none" stroke="black" d="M427.333,-215.679C438.864,-219.896 451.434,-225.857 461.214,-234 472.583,-243.466 470.392,-250.124 479.214,-262 497.681,-286.86 499.67,-296.424 524.448,-315 530.614,-319.622 537.696,-323.682 544.786,-327.154"/>
<polygon fill="black" stroke="black" points="543.822,-330.561 554.373,-331.524 546.725,-324.191 543.822,-330.561"/>
<text text-anchor="middle" x="492.831" y="-303.8" font-family="Times,serif" font-size="14.00">SCV</text>
</g>
<!-- Hellion -->
<g id="node12" class="node"><title>Hellion</title>
<ellipse fill="none" stroke="black" cx="585.539" cy="-288" rx="36.7663" ry="18"/>
<text text-anchor="middle" x="585.539" y="-283.8" font-family="Times,serif" font-size="14.00">Hellion</text>
</g>
<!-- Factory&#45;&gt;Hellion -->
<g id="edge11" class="edge"><title>Factory&#45;&gt;Hellion</title>
<path fill="none" stroke="black" d="M423.302,-218.285C435.037,-223.069 448.814,-228.744 461.214,-234 490.661,-246.482 523.863,-261.049 548.392,-271.905"/>
<polygon fill="black" stroke="black" points="547.113,-275.166 557.673,-276.019 549.949,-268.767 547.113,-275.166"/>
</g>
<!-- Siege Tank -->
<g id="node13" class="node"><title>Siege Tank</title>
<ellipse fill="none" stroke="black" cx="585.539" cy="-234" rx="49.2257" ry="18"/>
<text text-anchor="middle" x="585.539" y="-229.8" font-family="Times,serif" font-size="14.00">Siege Tank</text>
</g>
<!-- Factory&#45;&gt;Siege Tank -->
<g id="edge12" class="edge"><title>Factory&#45;&gt;Siege Tank</title>
<path fill="none" stroke="black" d="M430.064,-211.952C457.784,-215.909 497.161,-221.529 529.22,-226.104"/>
<polygon fill="black" stroke="black" points="528.954,-229.602 539.348,-227.55 529.943,-222.672 528.954,-229.602"/>
</g>
<!-- Window Mine -->
<g id="node14" class="node"><title>Window Mine</title>
<ellipse fill="none" stroke="black" cx="585.539" cy="-180" rx="61.1814" ry="18"/>
<text text-anchor="middle" x="585.539" y="-175.8" font-family="Times,serif" font-size="14.00">Window Mine</text>
</g>
<!-- Factory&#45;&gt;Window Mine -->
<g id="edge13" class="edge"><title>Factory&#45;&gt;Window Mine</title>
<path fill="none" stroke="black" d="M430.064,-202.048C455.172,-198.464 489.844,-193.516 519.98,-189.214"/>
<polygon fill="black" stroke="black" points="520.6,-192.661 530.005,-187.783 519.611,-185.732 520.6,-192.661"/>
</g>
<!-- Hellbat -->
<g id="node15" class="node"><title>Hellbat</title>
<ellipse fill="none" stroke="black" cx="585.539" cy="-126" rx="36.2732" ry="18"/>
<text text-anchor="middle" x="585.539" y="-121.8" font-family="Times,serif" font-size="14.00">Hellbat</text>
</g>
<!-- Factory&#45;&gt;Hellbat -->
<g id="edge14" class="edge"><title>Factory&#45;&gt;Hellbat</title>
<path fill="none" stroke="black" d="M423.302,-195.715C435.037,-190.931 448.814,-185.256 461.214,-180 490.851,-167.437 524.291,-152.763 548.866,-141.885"/>
<polygon fill="black" stroke="black" points="550.431,-145.02 558.154,-137.768 547.594,-138.621 550.431,-145.02"/>
</g>
<!-- Thor -->
<g id="node16" class="node"><title>Thor</title>
<ellipse fill="none" stroke="black" cx="585.539" cy="-72" rx="27.0958" ry="18"/>
<text text-anchor="middle" x="585.539" y="-67.8" font-family="Times,serif" font-size="14.00">Thor</text>
</g>
<!-- Factory&#45;&gt;Thor -->
<g id="edge15" class="edge"><title>Factory&#45;&gt;Thor</title>
<path fill="none" stroke="black" d="M426.611,-197.956C438.186,-193.673 450.973,-187.762 461.214,-180 461.783,-179.569 523.887,-99.4404 524.448,-99 532.396,-92.7659 542.013,-87.6197 551.2,-83.5527"/>
<polygon fill="black" stroke="black" points="552.621,-86.7529 560.531,-79.7048 549.952,-80.2815 552.621,-86.7529"/>
</g>
<!-- Cyclone -->
<g id="node17" class="node"><title>Cyclone</title>
<ellipse fill="none" stroke="black" cx="585.539" cy="-18" rx="39.6558" ry="18"/>
<text text-anchor="middle" x="585.539" y="-13.8" font-family="Times,serif" font-size="14.00">Cyclone</text>
</g>
<!-- Factory&#45;&gt;Cyclone -->
<g id="edge16" class="edge"><title>Factory&#45;&gt;Cyclone</title>
<path fill="none" stroke="black" d="M428.72,-199.757C440.411,-195.706 452.727,-189.483 461.214,-180 480.633,-158.3 467.35,-143.594 479.214,-117 494.611,-82.4874 495.939,-69.8072 524.448,-45 530.024,-40.1482 536.614,-36.0253 543.351,-32.5726"/>
<polygon fill="black" stroke="black" points="544.97,-35.6794 552.547,-28.2742 542.006,-29.3379 544.97,-35.6794"/>
</g>
<!-- Viking -->
<g id="node18" class="node"><title>Viking</title>
<ellipse fill="none" stroke="black" cx="765.151" cy="-558" rx="34.292" ry="18"/>
<text text-anchor="middle" x="765.151" y="-553.8" font-family="Times,serif" font-size="14.00">Viking</text>
</g>
<!-- Starport&#45;&gt;Viking -->
<g id="edge17" class="edge"><title>Starport&#45;&gt;Viking</title>
<path fill="none" stroke="black" d="M598.915,-413.234C619.449,-440.887 662.972,-495.644 709.864,-531 715.511,-535.258 721.933,-539.14 728.335,-542.551"/>
<polygon fill="black" stroke="black" points="727.098,-545.847 737.606,-547.201 730.236,-539.589 727.098,-545.847"/>
</g>
<!-- Medivac -->
<g id="node19" class="node"><title>Medivac</title>
<ellipse fill="none" stroke="black" cx="765.151" cy="-504" rx="41.092" ry="18"/>
<text text-anchor="middle" x="765.151" y="-499.8" font-family="Times,serif" font-size="14.00">Medivac</text>
</g>
<!-- Starport&#45;&gt;Medivac -->
<g id="edge18" class="edge"><title>Starport&#45;&gt;Medivac</title>
<path fill="none" stroke="black" d="M607.441,-410.838C631.59,-427.716 672.768,-455.695 709.864,-477 715.435,-480.2 721.435,-483.408 727.343,-486.439"/>
<polygon fill="black" stroke="black" points="725.97,-489.666 736.476,-491.031 729.113,-483.412 725.97,-489.666"/>
</g>
<!-- Raven -->
<g id="node20" class="node"><title>Raven</title>
<ellipse fill="none" stroke="black" cx="765.151" cy="-450" rx="32.8994" ry="18"/>
<text text-anchor="middle" x="765.151" y="-445.8" font-family="Times,serif" font-size="14.00">Raven</text>
</g>
<!-- Starport&#45;&gt;Raven -->
<g id="edge19" class="edge"><title>Starport&#45;&gt;Raven</title>
<path fill="none" stroke="black" d="M618.292,-405.654C648.545,-414.852 694.115,-428.707 726.253,-438.478"/>
<polygon fill="black" stroke="black" points="725.594,-441.935 736.179,-441.496 727.63,-435.238 725.594,-441.935"/>
</g>
<!-- Banshee -->
<g id="node21" class="node"><title>Banshee</title>
<ellipse fill="none" stroke="black" cx="765.151" cy="-396" rx="40.1317" ry="18"/>
<text text-anchor="middle" x="765.151" y="-391.8" font-family="Times,serif" font-size="14.00">Banshee</text>
</g>
<!-- Starport&#45;&gt;Banshee -->
<g id="edge20" class="edge"><title>Starport&#45;&gt;Banshee</title>
<path fill="none" stroke="black" d="M624.206,-396C650.597,-396 686.129,-396 714.785,-396"/>
<polygon fill="black" stroke="black" points="715.002,-399.5 725.002,-396 715.001,-392.5 715.002,-399.5"/>
</g>
<!-- Battlecruiser -->
<g id="node22" class="node"><title>Battlecruiser</title>
<ellipse fill="none" stroke="black" cx="765.151" cy="-342" rx="55.075" ry="18"/>
<text text-anchor="middle" x="765.151" y="-337.8" font-family="Times,serif" font-size="14.00">Battlecruiser</text>
</g>
<!-- Starport&#45;&gt;Battlecruiser -->
<g id="edge21" class="edge"><title>Starport&#45;&gt;Battlecruiser</title>
<path fill="none" stroke="black" d="M618.292,-386.346C645.033,-378.216 683.742,-366.447 714.564,-357.076"/>
<polygon fill="black" stroke="black" points="715.719,-360.383 724.269,-354.125 713.683,-353.686 715.719,-360.383"/>
</g>
<!-- Liberator -->
<g id="node23" class="node"><title>Liberator</title>
<ellipse fill="none" stroke="black" cx="765.151" cy="-288" rx="43.0128" ry="18"/>
<text text-anchor="middle" x="765.151" y="-283.8" font-family="Times,serif" font-size="14.00">Liberator</text>
</g>
<!-- Starport&#45;&gt;Liberator -->
<g id="edge22" class="edge"><title>Starport&#45;&gt;Liberator</title>
<path fill="none" stroke="black" d="M615.827,-384.826C625.91,-380.468 637.064,-375.058 646.63,-369 677.852,-349.227 679.035,-335.382 709.864,-315 714.87,-311.69 720.339,-308.515 725.817,-305.58"/>
<polygon fill="black" stroke="black" points="727.666,-308.565 734.963,-300.883 724.468,-302.338 727.666,-308.565"/>
</g>
<!-- Fusion Core -->
<g id="node24" class="node"><title>Fusion Core</title>
<ellipse fill="none" stroke="black" cx="765.151" cy="-234" rx="53.6803" ry="18"/>
<text text-anchor="middle" x="765.151" y="-229.8" font-family="Times,serif" font-size="14.00">Fusion Core</text>
</g>
<!-- Starport&#45;&gt;Fusion Core -->
<g id="edge23" class="edge"><title>Starport&#45;&gt;Fusion Core</title>
<path fill="none" stroke="black" d="M619.399,-387.047C629.295,-382.95 639.427,-377.135 646.63,-369 664.522,-348.792 651.262,-334.448 664.63,-311 679.472,-284.967 685.98,-279.099 709.864,-261 713.699,-258.093 717.897,-255.364 722.204,-252.841"/>
<polygon fill="black" stroke="black" points="724.027,-255.833 731.118,-247.961 720.666,-249.693 724.027,-255.833"/>
<text text-anchor="middle" x="678.247" y="-313.8" font-family="Times,serif" font-size="14.00">SCV</text>
</g>
<!-- Tech Lab -->
<g id="node25" class="node"><title>Tech Lab</title>
<ellipse fill="none" stroke="black" cx="58.992" cy="-315" rx="43.2464" ry="18"/>
<text text-anchor="middle" x="58.992" y="-310.8" font-family="Times,serif" font-size="14.00">Tech Lab</text>
</g>
<!-- Reactor -->
<g id="node26" class="node"><title>Reactor</title>
<ellipse fill="none" stroke="black" cx="58.992" cy="-369" rx="37.7092" ry="18"/>
<text text-anchor="middle" x="58.992" y="-364.8" font-family="Times,serif" font-size="14.00">Reactor</text>
</g>
</g>
</svg>
