<?xml version="1.0" encoding="UTF-8" standalone="no"?>
<!DOCTYPE svg PUBLIC "-//W3C//DTD SVG 1.1//EN"
 "http://www.w3.org/Graphics/SVG/1.1/DTD/svg11.dtd">
<!-- Generated by graphviz version 2.38.0 (20140413.2041)
 -->
<!-- Title: trees Pages: 1 -->
<svg width="968pt" height="590pt"
 viewBox="0.00 0.00 968.34 590.00" xmlns="http://www.w3.org/2000/svg" xmlns:xlink="http://www.w3.org/1999/xlink">
<g id="graph0" class="graph" transform="scale(1 1) rotate(0) translate(4 586)">
<title>trees</title>
<polygon fill="white" stroke="none" points="-4,4 -4,-586 964.336,-586 964.336,4 -4,4"/>
<!-- Supply Depot -->
<g id="node1" class="node"><title>Supply Depot</title>
<ellipse fill="none" stroke="black" cx="255.686" cy="-321" rx="58.984" ry="18"/>
<text text-anchor="middle" x="255.686" y="-316.8" font-family="Times,serif" font-size="14.00">Supply Depot</text>
</g>
<!-- Barracks -->
<g id="node2" class="node"><title>Barracks</title>
<ellipse fill="none" stroke="black" cx="425.893" cy="-321" rx="41.5679" ry="18"/>
<text text-anchor="middle" x="425.893" y="-316.8" font-family="Times,serif" font-size="14.00">Barracks</text>
</g>
<!-- Supply Depot&#45;&gt;Barracks -->
<g id="edge1" class="edge"><title>Supply Depot&#45;&gt;Barracks</title>
<path fill="none" stroke="black" d="M315.045,-321C334.26,-321 355.458,-321 374.066,-321"/>
<polygon fill="black" stroke="black" points="374.108,-324.5 384.108,-321 374.108,-317.5 374.108,-324.5"/>
</g>
<!-- Marine -->
<g id="node4" class="node"><title>Marine</title>
<ellipse fill="none" stroke="black" cx="588.734" cy="-415" rx="35.7887" ry="18"/>
<text text-anchor="middle" x="588.734" y="-410.8" font-family="Times,serif" font-size="14.00">Marine</text>
</g>
<!-- Barracks&#45;&gt;Marine -->
<g id="edge3" class="edge"><title>Barracks&#45;&gt;Marine</title>
<path fill="none" stroke="black" d="M458.224,-332.492C467.568,-336.652 477.536,-341.865 485.887,-348 505.162,-362.16 502.332,-374.229 521.887,-388 529.91,-393.65 539.291,-398.392 548.417,-402.247"/>
<polygon fill="black" stroke="black" points="547.18,-405.521 557.766,-405.943 549.753,-399.012 547.18,-405.521"/>
</g>
<!-- Marauder -->
<g id="node5" class="node"><title>Marauder</title>
<ellipse fill="none" stroke="black" cx="588.734" cy="-361" rx="44.4578" ry="18"/>
<text text-anchor="middle" x="588.734" y="-356.8" font-family="Times,serif" font-size="14.00">Marauder</text>
</g>
<!-- Barracks&#45;&gt;Marauder -->
<g id="edge4" class="edge"><title>Barracks&#45;&gt;Marauder</title>
<path fill="none" stroke="black" d="M462.191,-329.778C485.191,-335.498 515.473,-343.029 540.533,-349.262"/>
<polygon fill="black" stroke="black" points="540.013,-352.739 550.562,-351.755 541.702,-345.945 540.013,-352.739"/>
</g>
<!-- Reaper -->
<g id="node6" class="node"><title>Reaper</title>
<ellipse fill="none" stroke="black" cx="588.734" cy="-523" rx="35.2956" ry="18"/>
<text text-anchor="middle" x="588.734" y="-518.8" font-family="Times,serif" font-size="14.00">Reaper</text>
</g>
<!-- Barracks&#45;&gt;Reaper -->
<g id="edge5" class="edge"><title>Barracks&#45;&gt;Reaper</title>
<path fill="none" stroke="black" d="M461.307,-330.609C470.431,-334.65 479.505,-340.269 485.887,-348 528.983,-400.206 477.754,-444.668 521.887,-496 528.344,-503.51 537.213,-508.964 546.35,-512.913"/>
<polygon fill="black" stroke="black" points="545.288,-516.253 555.88,-516.507 547.758,-509.703 545.288,-516.253"/>
</g>
<!-- Ghost -->
<g id="node7" class="node"><title>Ghost</title>
<ellipse fill="none" stroke="black" cx="588.734" cy="-469" rx="31.4723" ry="18"/>
<text text-anchor="middle" x="588.734" y="-464.8" font-family="Times,serif" font-size="14.00">Ghost</text>
</g>
<!-- Barracks&#45;&gt;Ghost -->
<g id="edge6" class="edge"><title>Barracks&#45;&gt;Ghost</title>
<path fill="none" stroke="black" d="M460.696,-331.147C469.807,-335.2 479.027,-340.69 485.887,-348 516.501,-380.622 490.626,-409.999 521.887,-442 529.477,-449.769 539.618,-455.387 549.664,-459.414"/>
<polygon fill="black" stroke="black" points="548.586,-462.745 559.18,-462.806 550.936,-456.151 548.586,-462.745"/>
</g>
<!-- Factory -->
<g id="node8" class="node"><title>Factory</title>
<ellipse fill="none" stroke="black" cx="588.734" cy="-253" rx="37.2421" ry="18"/>
<text text-anchor="middle" x="588.734" y="-248.8" font-family="Times,serif" font-size="14.00">Factory</text>
</g>
<!-- Barracks&#45;&gt;Factory -->
<g id="edge7" class="edge"><title>Barracks&#45;&gt;Factory</title>
<path fill="none" stroke="black" d="M455.937,-308.301C474.715,-300.131 499.702,-289.335 521.887,-280 531.1,-276.123 541.066,-272.001 550.389,-268.174"/>
<polygon fill="black" stroke="black" points="551.884,-271.344 559.813,-264.317 549.232,-264.866 551.884,-271.344"/>
</g>
<!-- Ghost Academy -->
<g id="node9" class="node"><title>Ghost Academy</title>
<ellipse fill="none" stroke="black" cx="588.734" cy="-199" rx="66.6936" ry="18"/>
<text text-anchor="middle" x="588.734" y="-194.8" font-family="Times,serif" font-size="14.00">Ghost Academy</text>
</g>
<!-- Barracks&#45;&gt;Ghost Academy -->
<g id="edge9" class="edge"><title>Barracks&#45;&gt;Ghost Academy</title>
<path fill="none" stroke="black" d="M440.376,-303.844C457.455,-283.063 488.686,-248.1 521.887,-226 526.697,-222.798 531.947,-219.865 537.316,-217.21"/>
<polygon fill="black" stroke="black" points="538.8,-220.38 546.407,-213.004 535.861,-214.027 538.8,-220.38"/>
</g>
<!-- Bunker -->
<g id="node10" class="node"><title>Bunker</title>
<ellipse fill="none" stroke="black" cx="588.734" cy="-307" rx="36.2818" ry="18"/>
<text text-anchor="middle" x="588.734" y="-302.8" font-family="Times,serif" font-size="14.00">Bunker</text>
</g>
<!-- Barracks&#45;&gt;Bunker -->
<g id="edge11" class="edge"><title>Barracks&#45;&gt;Bunker</title>
<path fill="none" stroke="black" d="M467.065,-317.503C490.084,-315.5 519.031,-312.98 542.802,-310.911"/>
<polygon fill="black" stroke="black" points="543.321,-314.379 552.979,-310.025 542.714,-307.406 543.321,-314.379"/>
</g>
<!-- SCV -->
<g id="node3" class="node"><title>SCV</title>
<ellipse fill="none" stroke="black" cx="255.686" cy="-218" rx="27.1216" ry="18"/>
<text text-anchor="middle" x="255.686" y="-213.8" font-family="Times,serif" font-size="14.00">SCV</text>
</g>
<!-- SCV&#45;&gt;Barracks -->
<g id="edge2" class="edge"><title>SCV&#45;&gt;Barracks</title>
<path fill="none" stroke="black" d="M275.34,-230.775C296.856,-245.358 333.443,-269.688 365.9,-289 373.457,-293.496 381.685,-298.123 389.532,-302.412"/>
<polygon fill="black" stroke="black" points="388.044,-305.586 398.506,-307.263 391.374,-299.428 388.044,-305.586"/>
</g>
<!-- SCV&#45;&gt;Factory -->
<g id="edge8" class="edge"><title>SCV&#45;&gt;Factory</title>
<path fill="none" stroke="black" d="M282.94,-220.776C339.088,-226.712 471.442,-240.705 541.835,-248.147"/>
<polygon fill="black" stroke="black" points="541.855,-251.669 552.167,-249.24 542.591,-244.708 541.855,-251.669"/>
</g>
<!-- SCV&#45;&gt;Ghost Academy -->
<g id="edge10" class="edge"><title>SCV&#45;&gt;Ghost Academy</title>
<path fill="none" stroke="black" d="M282.94,-216.493C332.089,-213.672 439.628,-207.5 512.889,-203.296"/>
<polygon fill="black" stroke="black" points="513.206,-206.783 522.989,-202.716 512.805,-199.795 513.206,-206.783"/>
</g>
<!-- SCV&#45;&gt;Bunker -->
<g id="edge12" class="edge"><title>SCV&#45;&gt;Bunker</title>
<path fill="none" stroke="black" d="M280.911,-225.351C302.999,-231.993 336.561,-241.935 365.9,-250 428.504,-267.21 501.493,-285.654 546.151,-296.757"/>
<polygon fill="black" stroke="black" points="545.504,-300.203 556.053,-299.214 547.19,-293.409 545.504,-300.203"/>
</g>
<!-- Starport -->
<g id="node11" class="node"><title>Starport</title>
<ellipse fill="none" stroke="black" cx="752.671" cy="-153" rx="38.6955" ry="18"/>
<text text-anchor="middle" x="752.671" y="-148.8" font-family="Times,serif" font-size="14.00">Starport</text>
</g>
<!-- SCV&#45;&gt;Starport -->
<g id="edge14" class="edge"><title>SCV&#45;&gt;Starport</title>
<path fill="none" stroke="black" d="M282.173,-212.798C329.304,-203.352 433.355,-183.315 521.887,-172 584.642,-163.979 657.492,-158.62 704.054,-155.694"/>
<polygon fill="black" stroke="black" points="704.386,-159.18 714.151,-155.071 703.955,-152.193 704.386,-159.18"/>
</g>
<!-- Armory -->
<g id="node12" class="node"><title>Armory</title>
<ellipse fill="none" stroke="black" cx="752.671" cy="-99" rx="38.211" ry="18"/>
<text text-anchor="middle" x="752.671" y="-94.8" font-family="Times,serif" font-size="14.00">Armory</text>
</g>
<!-- SCV&#45;&gt;Armory -->
<g id="edge16" class="edge"><title>SCV&#45;&gt;Armory</title>
<path fill="none" stroke="black" d="M278.387,-207.532C300.093,-197.429 334.657,-182.329 365.9,-173 485.947,-137.153 632.366,-114.646 705.483,-104.794"/>
<polygon fill="black" stroke="black" points="706.275,-108.219 715.726,-103.432 705.352,-101.28 706.275,-108.219"/>
</g>
<!-- Fusion Core -->
<g id="node25" class="node"><title>Fusion Core</title>
<ellipse fill="none" stroke="black" cx="905.049" cy="-18" rx="53.6803" ry="18"/>
<text text-anchor="middle" x="905.049" y="-13.8" font-family="Times,serif" font-size="14.00">Fusion Core</text>
</g>
<!-- SCV&#45;&gt;Fusion Core -->
<g id="edge30" class="edge"><title>SCV&#45;&gt;Fusion Core</title>
<path fill="none" stroke="black" d="M272.394,-203.41C292.521,-185.522 329.209,-155.548 365.9,-139 528.782,-65.5375 740.119,-34.8827 842.743,-23.6602"/>
<polygon fill="black" stroke="black" points="843.354,-27.1149 852.925,-22.5718 842.61,-20.1546 843.354,-27.1149"/>
</g>
<!-- Factory&#45;&gt;Starport -->
<g id="edge13" class="edge"><title>Factory&#45;&gt;Starport</title>
<path fill="none" stroke="black" d="M620.973,-243.95C632.547,-239.666 645.335,-233.755 655.581,-226 676.28,-210.331 671.144,-196.01 691.581,-180 697.585,-175.296 704.538,-171.211 711.54,-167.741"/>
<polygon fill="black" stroke="black" points="713.399,-170.739 721.031,-163.391 710.482,-164.376 713.399,-170.739"/>
</g>
<!-- Factory&#45;&gt;Armory -->
<g id="edge15" class="edge"><title>Factory&#45;&gt;Armory</title>
<path fill="none" stroke="black" d="M622.75,-245.446C634.402,-241.359 646.78,-235.193 655.581,-226 688.246,-191.879 659.485,-160.658 691.581,-126 696.71,-120.462 703.188,-115.984 709.979,-112.389"/>
<polygon fill="black" stroke="black" points="711.758,-115.421 719.336,-108.017 708.795,-109.079 711.758,-115.421"/>
</g>
<!-- Hellion -->
<g id="node13" class="node"><title>Hellion</title>
<ellipse fill="none" stroke="black" cx="752.671" cy="-477" rx="36.7663" ry="18"/>
<text text-anchor="middle" x="752.671" y="-472.8" font-family="Times,serif" font-size="14.00">Hellion</text>
</g>
<!-- Factory&#45;&gt;Hellion -->
<g id="edge17" class="edge"><title>Factory&#45;&gt;Hellion</title>
<path fill="none" stroke="black" d="M623.104,-259.816C634.94,-263.826 647.35,-270.132 655.581,-280 705.048,-339.309 643.103,-389.879 691.581,-450 696.578,-456.198 703.3,-461.021 710.44,-464.759"/>
<polygon fill="black" stroke="black" points="709.058,-467.976 719.609,-468.936 711.96,-461.605 709.058,-467.976"/>
</g>
<!-- Siege Tank -->
<g id="node14" class="node"><title>Siege Tank</title>
<ellipse fill="none" stroke="black" cx="752.671" cy="-423" rx="49.2257" ry="18"/>
<text text-anchor="middle" x="752.671" y="-418.8" font-family="Times,serif" font-size="14.00">Siege Tank</text>
</g>
<!-- Factory&#45;&gt;Siege Tank -->
<g id="edge18" class="edge"><title>Factory&#45;&gt;Siege Tank</title>
<path fill="none" stroke="black" d="M622.972,-260.346C634.65,-264.409 646.987,-270.613 655.581,-280 692.031,-319.816 655.795,-355.585 691.581,-396 695.324,-400.228 699.859,-403.829 704.741,-406.889"/>
<polygon fill="black" stroke="black" points="703.35,-410.117 713.806,-411.828 706.7,-403.97 703.35,-410.117"/>
</g>
<!-- Window Mine -->
<g id="node15" class="node"><title>Window Mine</title>
<ellipse fill="none" stroke="black" cx="752.671" cy="-369" rx="61.1814" ry="18"/>
<text text-anchor="middle" x="752.671" y="-364.8" font-family="Times,serif" font-size="14.00">Window Mine</text>
</g>
<!-- Factory&#45;&gt;Window Mine -->
<g id="edge19" class="edge"><title>Factory&#45;&gt;Window Mine</title>
<path fill="none" stroke="black" d="M621.9,-261.444C633.454,-265.634 645.987,-271.638 655.581,-280 679.6,-300.937 667.911,-320.668 691.581,-342 695.112,-345.182 699.08,-348.043 703.251,-350.603"/>
<polygon fill="black" stroke="black" points="701.574,-353.675 712.02,-355.44 704.955,-347.546 701.574,-353.675"/>
</g>
<!-- Hellbat -->
<g id="node16" class="node"><title>Hellbat</title>
<ellipse fill="none" stroke="black" cx="752.671" cy="-315" rx="36.2732" ry="18"/>
<text text-anchor="middle" x="752.671" y="-310.8" font-family="Times,serif" font-size="14.00">Hellbat</text>
</g>
<!-- Factory&#45;&gt;Hellbat -->
<g id="edge20" class="edge"><title>Factory&#45;&gt;Hellbat</title>
<path fill="none" stroke="black" d="M618.312,-263.942C644.988,-274.155 684.959,-289.458 714.185,-300.648"/>
<polygon fill="black" stroke="black" points="713.059,-303.965 723.649,-304.271 715.562,-297.427 713.059,-303.965"/>
</g>
<!-- Thor -->
<g id="node17" class="node"><title>Thor</title>
<ellipse fill="none" stroke="black" cx="752.671" cy="-261" rx="27.0958" ry="18"/>
<text text-anchor="middle" x="752.671" y="-256.8" font-family="Times,serif" font-size="14.00">Thor</text>
</g>
<!-- Factory&#45;&gt;Thor -->
<g id="edge21" class="edge"><title>Factory&#45;&gt;Thor</title>
<path fill="none" stroke="black" d="M626.076,-254.795C652.666,-256.109 688.595,-257.884 715.212,-259.199"/>
<polygon fill="black" stroke="black" points="715.116,-262.698 725.277,-259.696 715.461,-255.707 715.116,-262.698"/>
</g>
<!-- Cyclone -->
<g id="node18" class="node"><title>Cyclone</title>
<ellipse fill="none" stroke="black" cx="752.671" cy="-207" rx="39.6558" ry="18"/>
<text text-anchor="middle" x="752.671" y="-202.8" font-family="Times,serif" font-size="14.00">Cyclone</text>
</g>
<!-- Factory&#45;&gt;Cyclone -->
<g id="edge22" class="edge"><title>Factory&#45;&gt;Cyclone</title>
<path fill="none" stroke="black" d="M621.341,-244.022C646.344,-236.919 681.502,-226.932 709.002,-219.121"/>
<polygon fill="black" stroke="black" points="710.091,-222.45 718.754,-216.351 708.178,-215.716 710.091,-222.45"/>
</g>
<!-- Viking -->
<g id="node19" class="node"><title>Viking</title>
<ellipse fill="none" stroke="black" cx="905.049" cy="-180" rx="34.292" ry="18"/>
<text text-anchor="middle" x="905.049" y="-175.8" font-family="Times,serif" font-size="14.00">Viking</text>
</g>
<!-- Starport&#45;&gt;Viking -->
<g id="edge23" class="edge"><title>Starport&#45;&gt;Viking</title>
<path fill="none" stroke="black" d="M788.928,-159.33C811.009,-163.295 839.563,-168.422 862.709,-172.578"/>
<polygon fill="black" stroke="black" points="862.129,-176.029 872.591,-174.352 863.367,-169.14 862.129,-176.029"/>
</g>
<!-- Medivac -->
<g id="node20" class="node"><title>Medivac</title>
<ellipse fill="none" stroke="black" cx="905.049" cy="-126" rx="41.092" ry="18"/>
<text text-anchor="middle" x="905.049" y="-121.8" font-family="Times,serif" font-size="14.00">Medivac</text>
</g>
<!-- Starport&#45;&gt;Medivac -->
<g id="edge24" class="edge"><title>Starport&#45;&gt;Medivac</title>
<path fill="none" stroke="black" d="M788.928,-146.67C809.162,-143.037 834.832,-138.428 856.795,-134.484"/>
<polygon fill="black" stroke="black" points="857.691,-137.88 866.915,-132.667 856.453,-130.99 857.691,-137.88"/>
</g>
<!-- Raven -->
<g id="node21" class="node"><title>Raven</title>
<ellipse fill="none" stroke="black" cx="905.049" cy="-72" rx="32.8994" ry="18"/>
<text text-anchor="middle" x="905.049" y="-67.8" font-family="Times,serif" font-size="14.00">Raven</text>
</g>
<!-- Starport&#45;&gt;Raven -->
<g id="edge25" class="edge"><title>Starport&#45;&gt;Raven</title>
<path fill="none" stroke="black" d="M782.748,-141.481C792.813,-137.093 804.009,-131.752 813.762,-126 830.989,-115.839 832.738,-109.497 849.762,-99 856.168,-95.05 863.231,-91.2003 870.083,-87.7029"/>
<polygon fill="black" stroke="black" points="871.811,-90.7531 879.216,-83.1759 868.702,-84.4813 871.811,-90.7531"/>
</g>
<!-- Banshee -->
<g id="node22" class="node"><title>Banshee</title>
<ellipse fill="none" stroke="black" cx="905.049" cy="-342" rx="40.1317" ry="18"/>
<text text-anchor="middle" x="905.049" y="-337.8" font-family="Times,serif" font-size="14.00">Banshee</text>
</g>
<!-- Starport&#45;&gt;Banshee -->
<g id="edge26" class="edge"><title>Starport&#45;&gt;Banshee</title>
<path fill="none" stroke="black" d="M786.728,-161.782C796.635,-165.869 806.724,-171.722 813.762,-180 853.981,-227.311 810.478,-266.909 849.762,-315 853.516,-319.596 858.249,-323.477 863.348,-326.735"/>
<polygon fill="black" stroke="black" points="861.728,-329.838 872.167,-331.646 865.134,-323.723 861.728,-329.838"/>
</g>
<!-- Battlecruiser -->
<g id="node23" class="node"><title>Battlecruiser</title>
<ellipse fill="none" stroke="black" cx="905.049" cy="-288" rx="55.075" ry="18"/>
<text text-anchor="middle" x="905.049" y="-283.8" font-family="Times,serif" font-size="14.00">Battlecruiser</text>
</g>
<!-- Starport&#45;&gt;Battlecruiser -->
<g id="edge27" class="edge"><title>Starport&#45;&gt;Battlecruiser</title>
<path fill="none" stroke="black" d="M785.669,-162.34C795.627,-166.479 806.014,-172.22 813.762,-180 841.562,-207.913 822.515,-232.547 849.762,-261 852.669,-264.036 855.991,-266.782 859.527,-269.255"/>
<polygon fill="black" stroke="black" points="857.724,-272.255 868.071,-274.535 861.404,-266.301 857.724,-272.255"/>
</g>
<!-- Liberator -->
<g id="node24" class="node"><title>Liberator</title>
<ellipse fill="none" stroke="black" cx="905.049" cy="-234" rx="43.0128" ry="18"/>
<text text-anchor="middle" x="905.049" y="-229.8" font-family="Times,serif" font-size="14.00">Liberator</text>
</g>
<!-- Starport&#45;&gt;Liberator -->
<g id="edge28" class="edge"><title>Starport&#45;&gt;Liberator</title>
<path fill="none" stroke="black" d="M782.748,-164.519C792.813,-168.907 804.009,-174.248 813.762,-180 830.989,-190.161 832.738,-196.503 849.762,-207 854.928,-210.185 860.52,-213.305 866.086,-216.228"/>
<polygon fill="black" stroke="black" points="864.845,-219.523 875.345,-220.937 868.018,-213.284 864.845,-219.523"/>
</g>
<!-- Starport&#45;&gt;Fusion Core -->
<g id="edge29" class="edge"><title>Starport&#45;&gt;Fusion Core</title>
<path fill="none" stroke="black" d="M785.669,-143.66C795.627,-139.521 806.014,-133.78 813.762,-126 841.562,-98.0867 822.515,-73.4534 849.762,-45 852.71,-41.921 856.085,-39.1404 859.676,-36.6409"/>
<polygon fill="black" stroke="black" points="861.664,-39.5274 868.353,-31.3108 858,-33.563 861.664,-39.5274"/>
</g>
<!-- Refinery -->
<g id="node26" class="node"><title>Refinery</title>
<ellipse fill="none" stroke="black" cx="72.7365" cy="-456" rx="40.6248" ry="18"/>
<text text-anchor="middle" x="72.7365" y="-451.8" font-family="Times,serif" font-size="14.00">Refinery</text>
</g>
<!-- Tech Lab -->
<g id="node27" class="node"><title>Tech Lab</title>
<ellipse fill="none" stroke="black" cx="72.7365" cy="-510" rx="43.2464" ry="18"/>
<text text-anchor="middle" x="72.7365" y="-505.8" font-family="Times,serif" font-size="14.00">Tech Lab</text>
</g>
<!-- Reactor -->
<g id="node28" class="node"><title>Reactor</title>
<ellipse fill="none" stroke="black" cx="72.7365" cy="-564" rx="37.7092" ry="18"/>
<text text-anchor="middle" x="72.7365" y="-559.8" font-family="Times,serif" font-size="14.00">Reactor</text>
</g>
<!-- Command Center -->
<g id="node29" class="node"><title>Command Center</title>
<ellipse fill="none" stroke="black" cx="72.7365" cy="-402" rx="72.9738" ry="18"/>
<text text-anchor="middle" x="72.7365" y="-397.8" font-family="Times,serif" font-size="14.00">Command Center</text>
</g>
<!-- Command Center&#45;&gt;SCV -->
<g id="edge31" class="edge"><title>Command Center&#45;&gt;SCV</title>
<path fill="none" stroke="black" d="M91.0868,-384.357C124.12,-350.767 195.998,-277.677 232.484,-240.577"/>
<polygon fill="black" stroke="black" points="235.189,-242.818 239.705,-233.234 230.198,-237.909 235.189,-242.818"/>
</g>
<!-- Orbital Command -->
<g id="node30" class="node"><title>Orbital Command</title>
<ellipse fill="none" stroke="black" cx="255.686" cy="-483" rx="74.4272" ry="18"/>
<text text-anchor="middle" x="255.686" y="-478.8" font-family="Times,serif" font-size="14.00">Orbital Command</text>
</g>
<!-- Command Center&#45;&gt;Orbital Command -->
<g id="edge32" class="edge"><title>Command Center&#45;&gt;Orbital Command</title>
<path fill="none" stroke="black" d="M117.487,-416.207C126.942,-419.895 136.723,-424.2 145.473,-429 163.008,-438.619 163.906,-446.439 181.473,-456 187.389,-459.22 193.769,-462.207 200.209,-464.931"/>
<polygon fill="black" stroke="black" points="199.057,-468.241 209.641,-468.73 201.672,-461.748 199.057,-468.241"/>
</g>
<!-- Planetary Fortress -->
<g id="node31" class="node"><title>Planetary Fortress</title>
<ellipse fill="none" stroke="black" cx="255.686" cy="-429" rx="74.4186" ry="18"/>
<text text-anchor="middle" x="255.686" y="-424.8" font-family="Times,serif" font-size="14.00">Planetary Fortress</text>
</g>
<!-- Command Center&#45;&gt;Planetary Fortress -->
<g id="edge33" class="edge"><title>Command Center&#45;&gt;Planetary Fortress</title>
<path fill="none" stroke="black" d="M135.503,-411.216C150.453,-413.447 166.569,-415.852 181.97,-418.15"/>
<polygon fill="black" stroke="black" points="181.561,-421.627 191.968,-419.642 182.594,-414.704 181.561,-421.627"/>
</g>
<!-- Engineering Bay -->
<g id="node32" class="node"><title>Engineering Bay</title>
<ellipse fill="none" stroke="black" cx="255.686" cy="-375" rx="69.5666" ry="18"/>
<text text-anchor="middle" x="255.686" y="-370.8" font-family="Times,serif" font-size="14.00">Engineering Bay</text>
</g>
<!-- Command Center&#45;&gt;Engineering Bay -->
<g id="edge34" class="edge"><title>Command Center&#45;&gt;Engineering Bay</title>
<path fill="none" stroke="black" d="M135.503,-392.784C151.358,-390.418 168.525,-387.856 184.76,-385.434"/>
<polygon fill="black" stroke="black" points="185.354,-388.884 194.728,-383.947 184.321,-381.961 185.354,-388.884"/>
</g>
<!-- Missile Turret -->
<g id="node33" class="node"><title>Missile Turret</title>
<ellipse fill="none" stroke="black" cx="425.893" cy="-429" rx="59.9876" ry="18"/>
<text text-anchor="middle" x="425.893" y="-424.8" font-family="Times,serif" font-size="14.00">Missile Turret</text>
</g>
<!-- Engineering Bay&#45;&gt;Missile Turret -->
<g id="edge35" class="edge"><title>Engineering Bay&#45;&gt;Missile Turret</title>
<path fill="none" stroke="black" d="M300.004,-388.906C322.847,-396.24 350.986,-405.273 374.768,-412.908"/>
<polygon fill="black" stroke="black" points="373.733,-416.252 384.324,-415.976 375.873,-409.587 373.733,-416.252"/>
</g>
<!-- Sensor Tower -->
<g id="node34" class="node"><title>Sensor Tower</title>
<ellipse fill="none" stroke="black" cx="425.893" cy="-375" rx="58.8974" ry="18"/>
<text text-anchor="middle" x="425.893" y="-370.8" font-family="Times,serif" font-size="14.00">Sensor Tower</text>
</g>
<!-- Engineering Bay&#45;&gt;Sensor Tower -->
<g id="edge36" class="edge"><title>Engineering Bay&#45;&gt;Sensor Tower</title>
<path fill="none" stroke="black" d="M325.588,-375C335.931,-375 346.591,-375 356.915,-375"/>
<polygon fill="black" stroke="black" points="357.102,-378.5 367.102,-375 357.102,-371.5 357.102,-378.5"/>
</g>
</g>
</svg>
